<?xml version="1.0" encoding="utf-8"?>
<!-- Generator: Adobe Illustrator 15.1.0, SVG Export Plug-In . SVG Version: 6.00 Build 0)  -->
<!DOCTYPE svg PUBLIC "-//W3C//DTD SVG 1.1//EN" "http://www.w3.org/Graphics/SVG/1.1/DTD/svg11.dtd">
<svg version="1.1" id="Calque_1" xmlns="http://www.w3.org/2000/svg" xmlns:xlink="http://www.w3.org/1999/xlink" x="0px" y="0px"
     width="114.666px" height="26.667px" viewBox="0 0 114.666 26.667" enable-background="new 0 0 114.666 26.667"
     xml:space="preserve">
<g>
    <path fill="#0000FF" d="M8.397,23.278c-0.731,0-1.354-0.252-1.867-0.755c-0.514-0.504-0.771-1.122-0.771-1.853V6.209
        c0-0.73,0.257-1.353,0.771-1.867c0.513-0.513,1.136-0.771,1.867-0.771c0.73,0,1.348,0.257,1.852,0.771
        c0.503,0.514,0.756,1.136,0.756,1.867V20.67c0,0.731-0.252,1.348-0.756,1.853C9.745,23.026,9.127,23.278,8.397,23.278 M8.397,3.898
        c-0.633,0-1.175,0.228-1.63,0.681c-0.454,0.455-0.681,0.998-0.681,1.63V20.67c0,0.633,0.227,1.176,0.681,1.63
        c0.455,0.455,0.998,0.682,1.63,0.682c0.632,0,1.175-0.227,1.63-0.682c0.454-0.454,0.681-0.997,0.681-1.63V6.209
        c0-0.632-0.227-1.175-0.681-1.63C9.572,4.125,9.029,3.898,8.397,3.898"/>
    <path fill="#B2B2FF" d="M8.397,23.561c-0.805,0-1.499-0.281-2.065-0.836c-0.567-0.557-0.855-1.248-0.855-2.054V6.209
        c0-0.805,0.287-1.501,0.853-2.067c0.567-0.566,1.262-0.854,2.067-0.854c0.806,0,1.497,0.288,2.054,0.855
        c0.555,0.566,0.837,1.261,0.837,2.065V20.67c0,0.805-0.282,1.496-0.839,2.052C9.893,23.279,9.202,23.561,8.397,23.561 M8.397,4.181
        c-0.559,0-1.027,0.196-1.43,0.599C6.564,5.183,6.368,5.65,6.368,6.209V20.67c0,0.559,0.196,1.027,0.599,1.429
        c0.402,0.404,0.87,0.599,1.43,0.599c0.559,0,1.027-0.195,1.43-0.599c0.402-0.403,0.598-0.871,0.598-1.43V6.209
        c0-0.559-0.196-1.026-0.599-1.43C9.424,4.376,8.956,4.181,8.397,4.181"/>
    <path fill="#0000FF" d="M15.064,20.67V3.72c0-0.099,0.049-0.148,0.148-0.148h0.059c0.079,0,0.119,0.049,0.119,0.148v16.95
        c0,0.633,0.227,1.176,0.682,1.63c0.454,0.454,0.998,0.681,1.63,0.681c0.632,0,1.175-0.227,1.63-0.681
        c0.454-0.455,0.682-0.998,0.682-1.63V3.72c0-0.099,0.039-0.148,0.119-0.148h0.059c0.079,0,0.119,0.049,0.119,0.148v16.95
        c0,0.731-0.252,1.349-0.756,1.853c-0.504,0.503-1.122,0.756-1.852,0.756c-0.731,0-1.353-0.252-1.867-0.756
        C15.321,22.019,15.064,21.401,15.064,20.67"/>
    <path fill="#B2B2FF" d="M17.702,23.561c-0.804,0-1.499-0.281-2.065-0.836c-0.567-0.557-0.855-1.248-0.855-2.055V3.72
        c0-0.254,0.177-0.431,0.431-0.431h0.06c0.193,0,0.401,0.135,0.401,0.431v16.95c0,0.56,0.196,1.028,0.599,1.43
        c0.403,0.403,0.871,0.599,1.43,0.599c0.559,0,1.027-0.195,1.43-0.598c0.403-0.403,0.599-0.871,0.599-1.43V3.72
        c0-0.296,0.208-0.431,0.401-0.431h0.06c0.193,0,0.401,0.135,0.401,0.431v16.95c0,0.806-0.282,1.497-0.838,2.052
        C19.197,23.279,18.507,23.561,17.702,23.561"/>
    <path fill="#0000FF" d="M24.369,23.159V3.72c0-0.099,0.049-0.148,0.148-0.148h0.06c0.079,0,0.118,0.049,0.118,0.148v19.439
        c0,0.08-0.04,0.119-0.118,0.119h-0.06C24.418,23.278,24.369,23.239,24.369,23.159"/>
    <path fill="#B2B2FF" d="M24.577,23.561h-0.06c-0.296,0-0.431-0.208-0.431-0.401V3.72c0-0.254,0.177-0.431,0.431-0.431h0.06
        c0.193,0,0.401,0.135,0.401,0.431v19.439C24.978,23.396,24.813,23.561,24.577,23.561"/>
    <path fill="#B2B2FF" d="M33.348,7.987V6.979c0-0.414-0.148-0.771-0.444-1.066s-0.652-0.445-1.067-0.445s-0.771,0.149-1.067,0.445
        s-0.444,0.652-0.444,1.066v1.512c0,0.177,0.005,0.287,0.015,0.326c0.01,0.04,0.035,0.099,0.074,0.178l4.267,7.527
        c0.138,0.257,0.247,0.455,0.326,0.593c0.079,0.138,0.133,0.267,0.163,0.385c0.03,0.119,0.049,0.242,0.059,0.371
        c0.01,0.129,0.015,0.302,0.015,0.519v1.481c0,0.474-0.089,0.919-0.267,1.333c-0.178,0.416-0.425,0.776-0.741,1.082
        c-0.316,0.306-0.677,0.548-1.082,0.726c-0.405,0.178-0.845,0.267-1.319,0.267c-0.475,0-0.914-0.089-1.319-0.267
        c-0.405-0.178-0.766-0.419-1.082-0.726s-0.563-0.667-0.741-1.082c-0.177-0.415-0.267-0.859-0.267-1.333v-1.007
        c0-0.119,0.045-0.227,0.134-0.326c0.089-0.099,0.202-0.148,0.341-0.148h0.948c0.138,0,0.252,0.049,0.341,0.148
        c0.089,0.099,0.133,0.208,0.133,0.326v1.007c0,0.435,0.148,0.8,0.444,1.097c0.296,0.296,0.652,0.444,1.067,0.444
        s0.771-0.148,1.067-0.444c0.296-0.296,0.444-0.662,0.444-1.097v-1.481c0-0.158-0.005-0.256-0.015-0.297
        c-0.01-0.039-0.035-0.099-0.074-0.177l-4.267-7.527c-0.139-0.256-0.247-0.454-0.326-0.592s-0.133-0.267-0.163-0.385
        c-0.029-0.119-0.049-0.247-0.059-0.385c-0.01-0.138-0.015-0.316-0.015-0.533V6.979c0-0.474,0.089-0.914,0.267-1.318
        c0.178-0.404,0.425-0.765,0.741-1.082c0.316-0.315,0.676-0.563,1.082-0.741c0.405-0.178,0.844-0.267,1.319-0.267
        c0.474,0,0.914,0.089,1.319,0.267c0.404,0.178,0.765,0.425,1.082,0.741c0.316,0.317,0.562,0.678,0.741,1.082
        c0.178,0.405,0.267,0.845,0.267,1.318v1.008c0,0.316-0.158,0.474-0.474,0.474h-0.948C33.506,8.461,33.348,8.303,33.348,7.987"/>
    <path fill="#B2B2FF" d="M44.089,3.72c0.089,0.1,0.134,0.207,0.134,0.326v18.758c0,0.316-0.159,0.474-0.475,0.474h-0.918
        c-0.316,0-0.474-0.158-0.474-0.474v-8.416h-3.052v8.416c0,0.316-0.158,0.474-0.474,0.474h-0.948c-0.316,0-0.475-0.158-0.475-0.474
        V4.075v-0.03c0-0.119,0.044-0.226,0.133-0.326c0.089-0.099,0.203-0.148,0.341-0.148h0.948c0.138,0,0.251,0.049,0.34,0.148
        c0.089,0.1,0.134,0.207,0.134,0.326v8.446h3.052V4.045c0-0.119,0.044-0.226,0.133-0.326c0.089-0.099,0.203-0.148,0.341-0.148h0.918
        C43.887,3.572,44,3.621,44.089,3.72"/>
    <path fill="#B2B2FF" d="M50.12,3.572c0.474,0,0.913,0.088,1.318,0.266c0.405,0.178,0.766,0.425,1.082,0.741
        c0.316,0.316,0.563,0.682,0.742,1.096c0.177,0.415,0.266,0.86,0.266,1.334v15.794c0,0.316-0.159,0.475-0.475,0.475h-0.948
        c-0.316,0-0.474-0.158-0.474-0.475v-8.445h-3.052v8.445c0,0.316-0.158,0.475-0.474,0.475h-0.948c-0.119,0-0.227-0.044-0.327-0.134
        c-0.099-0.088-0.148-0.202-0.148-0.341V7.009c0-0.474,0.089-0.919,0.267-1.334c0.178-0.415,0.424-0.78,0.74-1.096
        c0.316-0.316,0.682-0.563,1.097-0.741C49.201,3.66,49.646,3.572,50.12,3.572 M51.631,12.462V7.009c0-0.435-0.148-0.8-0.444-1.097
        c-0.297-0.296-0.652-0.445-1.067-0.445c-0.435,0-0.801,0.149-1.097,0.445c-0.296,0.296-0.444,0.662-0.444,1.097v5.453H51.631z"/>
    <path fill="#B2B2FF" d="M62.655,10.95c0,0.988-0.347,1.808-1.039,2.46c0.692,0.652,1.039,1.481,1.039,2.489v6.904
        c0,0.316-0.16,0.475-0.475,0.475h-0.949c-0.315,0-0.474-0.158-0.474-0.475v-6.904c0-0.435-0.148-0.8-0.444-1.097
        c-0.296-0.296-0.652-0.444-1.066-0.444h-1.512v8.445c0,0.139-0.05,0.252-0.147,0.341c-0.1,0.089-0.208,0.134-0.326,0.134h-0.949
        c-0.315,0-0.474-0.158-0.474-0.475V4.521c0-0.257,0.089-0.479,0.267-0.667c0.178-0.188,0.404-0.281,0.682-0.281h2.46
        c0.474,0,0.918,0.089,1.334,0.267c0.414,0.178,0.774,0.425,1.081,0.741c0.306,0.317,0.548,0.682,0.726,1.097
        c0.178,0.415,0.268,0.86,0.268,1.333V10.95z M60.758,7.009c0-0.434-0.148-0.8-0.444-1.096s-0.652-0.445-1.066-0.445h-1.512v6.994
        h1.512c0.414,0,0.771-0.148,1.066-0.445s0.444-0.652,0.444-1.067V7.009z"/>
    <path fill="#B2B2FF" d="M67.011,5.468v7.023h2.578c0.316,0,0.475,0.158,0.475,0.474v0.948c0,0.119-0.045,0.228-0.134,0.326
        c-0.089,0.099-0.202,0.148-0.341,0.148h-2.578v6.994h2.578c0.139,0,0.252,0.05,0.341,0.148s0.134,0.207,0.134,0.326v0.948
        c0,0.316-0.158,0.475-0.475,0.475h-3.527c-0.276,0-0.502-0.089-0.681-0.268c-0.178-0.178-0.267-0.404-0.267-0.681V4.52
        c0-0.256,0.089-0.479,0.267-0.667c0.179-0.188,0.404-0.281,0.681-0.281h3.527c0.139,0,0.252,0.049,0.341,0.148
        c0.089,0.1,0.134,0.207,0.134,0.326v0.948c0,0.315-0.158,0.474-0.475,0.474H67.011z"/>
    <path fill="#B2B2FF" d="M91.512,7.472l-0.014,0.091v1.195c0,0.026,0.003,0.051,0.004,0.076c0.001,0.004,0.001,0.008,0.001,0.012
        c0.002,0.026,0.004,0.052,0.008,0.077c0.023,0.221,0.104,0.438,0.247,0.629l4.878,6.536V11.76l-2.572-3.448V7.756
        c0.174-0.994,0.896-1.971,2.154-1.971c0.143,0,0.283,0.014,0.418,0.039V3.238c-0.137-0.012-0.277-0.018-0.418-0.018
        C93.808,3.22,91.873,4.968,91.512,7.472"/>
    <path fill="#B2B2FF" d="M91.498,19.218l0.014,0.092c0.361,2.502,2.296,4.25,4.706,4.25c0.141,0,0.281-0.006,0.418-0.018v-2.586
        c-0.135,0.026-0.275,0.039-0.418,0.039c-1.258,0-1.98-0.976-2.154-1.971v-1.002c0-0.708-0.574-1.282-1.283-1.282
        c-0.707,0-1.282,0.575-1.282,1.282V19.218z"/>
    <path fill="#B2B2FF" d="M105.058,13.404v8.837c0,0.712,0.578,1.29,1.291,1.29c0.6,0,1.104-0.41,1.248-0.964V3.208h-3.784
        c-0.714,0-1.294,0.58-1.294,1.294c0,0.715,0.58,1.294,1.294,1.294h1.245v7.563V13.404z"/>
    <path fill="#B2B2FF" d="M83.007,4.012c-0.066,0.157-0.104,0.33-0.104,0.51v8.838v0.043v8.838c0,0.492,0.274,0.918,0.679,1.136
        c0.182,0.099,0.391,0.155,0.611,0.155h1.305v-2.565h-0.014v-6.339h0.014v-2.564h-0.014V5.785h0.014V3.22h-1.305
        C83.658,3.22,83.2,3.548,83.007,4.012"/>
    <path fill="#B2B2FF" d="M73.433,4.012c-0.066,0.157-0.104,0.33-0.104,0.51v8.838v0.043v8.838c0,0.712,0.577,1.29,1.29,1.29
        s1.291-0.578,1.291-1.29v-7.613h0.014v-2.564h-0.014V5.785h0.014V3.22h-1.305C74.083,3.22,73.626,3.548,73.433,4.012"/>
    <path fill="#FFFFFF" d="M80.188,13.346c0-0.708-0.574-1.282-1.282-1.282h-2.983v2.565h2.983
        C79.614,14.629,80.188,14.055,80.188,13.346"/>
    <path fill="#FFFFFF" d="M78.906,5.785c0.708,0,1.282-0.574,1.282-1.283c0-0.708-0.574-1.282-1.282-1.282h-2.983v2.565H78.906z"/>
    <path fill="#FFFFFF" d="M89.763,22.25c0-0.708-0.574-1.283-1.281-1.283h-2.984v2.565h2.984
        C89.188,23.533,89.763,22.959,89.763,22.25"/>
    <path fill="#FFFFFF" d="M88.481,14.629c0.707,0,1.281-0.574,1.281-1.283c0-0.708-0.574-1.282-1.281-1.282h-2.984v2.564H88.481z"/>
    <path fill="#FFFFFF" d="M88.481,5.785c0.707,0,1.281-0.574,1.281-1.283c0-0.708-0.574-1.282-1.281-1.282h-2.984v2.565H88.481z"/>
    <path fill="#FFFFFF" d="M100.924,19.246l0.007-0.068v-0.967c0.064-0.342-0.009-0.709-0.234-1.01l-4.061-5.441v4.329l1.73,2.319
        v0.626c-0.132,1.01-0.814,1.75-1.73,1.923v2.586C98.897,23.35,100.671,21.603,100.924,19.246"/>
    <path fill="#FFFFFF" d="M98.366,7.747v0.99c0,0.708,0.574,1.283,1.282,1.283s1.282-0.575,1.282-1.283V7.604l-0.007-0.068
        c-0.253-2.356-2.026-4.104-4.288-4.297v2.586C97.552,5.998,98.234,6.738,98.366,7.747"/>
    <path fill="#FFFFFF" d="M110.179,4.502c0-0.714-0.58-1.294-1.295-1.294h-1.23v2.589h1.23
        C109.599,5.797,110.179,5.218,110.179,4.502"/>
</g>
</svg>
