<?xml version="1.0" encoding="utf-8"?>
<!-- Generator: Adobe Illustrator 16.0.0, SVG Export Plug-In . SVG Version: 6.00 Build 0)  -->
<!DOCTYPE svg PUBLIC "-//W3C//DTD SVG 1.1//EN" "http://www.w3.org/Graphics/SVG/1.1/DTD/svg11.dtd">
<svg version="1.1" id="Google_Plus_Icon" xmlns="http://www.w3.org/2000/svg" xmlns:xlink="http://www.w3.org/1999/xlink" x="0px"
	 y="0px" width="150px" height="150px" viewBox="0 0 150 150" enable-background="new 0 0 150 150" xml:space="preserve">
<rect fill="#D5544B" width="150" height="150"/>
<polygon fill="#953C36" points="150,150 0,150 150,0 "/>
<path fill="#692C28" d="M150,86.348L90.049,26.162L83.227,31h-9.991c6.627,3,10.158,10.536,10.158,18.463
	c0,6.659-3.689,12.646-8.899,16.718c-5.084,3.973-6.049,5.635-6.049,9.013c0,2.883,5.447,7.786,8.295,9.802
	c8.325,5.89,11.019,11.354,11.019,20.479c0,11.382-11.019,22.702-30.969,22.702c-10.753,0-20.468-2.694-26.364-7.409L60,150h90
	V86.348z"/>
<linearGradient id="SVGID_1_" gradientUnits="userSpaceOnUse" x1="108.5" y1="59" x2="108.5" y2="91.0005">
	<stop  offset="0" style="stop-color:#F9F9F9"/>
	<stop  offset="1" style="stop-color:#D1D1D3"/>
</linearGradient>
<polygon fill="url(#SVGID_1_)" points="111,72 111,59 105,59 105,72 92,72 92,78 105,78 105,91 111,91 111,78 125,78 125,72 "/>
<path fill="#D4145A" d="M53.683,83.092"/>
<linearGradient id="SVGID_2_" gradientUnits="userSpaceOnUse" x1="28.9194" y1="25.519" x2="28.9194" y2="130.8444">
	<stop  offset="0" style="stop-color:#F9F9F9"/>
	<stop  offset="1" style="stop-color:#D1D1D3"/>
</linearGradient>
<path fill="url(#SVGID_2_)" d="M30.426,120.768l-3.012-3.013C28.256,118.834,29.266,119.84,30.426,120.768z"/>
<linearGradient id="SVGID_3_" gradientUnits="userSpaceOnUse" x1="90.082" y1="25.519" x2="90.082" y2="130.8444">
	<stop  offset="0" style="stop-color:#F9F9F9"/>
	<stop  offset="1" style="stop-color:#D1D1D3"/>
</linearGradient>
<path fill="url(#SVGID_3_)" d="M90.277,26c0,0-0.146,0-0.391,0l0.162,0.162L90.277,26z"/>
<path fill="#692C28" d="M79.657,106.762c0-1.109-0.136-2.195-0.386-3.25c-1.33-5.202-6.039-7.783-12.605-12.349
	c-2.387-0.773-5.018-1.227-7.84-1.257c-12.094-0.132-22.929,7.373-22.929,16.386c0,9.197,8.734,16.854,20.83,16.854
	C73.73,123.146,79.657,115.959,79.657,106.762z"/>
<path fill="#692C28" d="M72.065,50.345c-1.401-10.661-9.12-19.215-17.237-19.459c-8.117-0.243-13.56,7.917-12.159,18.579
	c1.401,10.66,9.117,19.5,17.236,19.742C68.021,69.451,73.467,61.006,72.065,50.345z"/>
<linearGradient id="SVGID_4_" gradientUnits="userSpaceOnUse" x1="24.5269" y1="77.0879" x2="90.0488" y2="77.0879">
	<stop  offset="0" style="stop-color:#F9F9F9"/>
	<stop  offset="1" style="stop-color:#D1D1D3"/>
</linearGradient>
<path fill="url(#SVGID_4_)" d="M87.759,105.475c0-9.125-2.693-14.59-11.019-20.479c-2.848-2.016-8.295-6.919-8.295-9.802
	c0-3.377,0.964-5.04,6.049-9.013c5.21-4.072,8.899-10.059,8.899-16.718C83.394,41.536,79.862,34,73.235,31h9.991l6.822-4.838
	L89.887,26c-3.054,0-23.829,0-31.12,0c-14.128,0-27.423,10.916-27.423,23.313c0,12.668,9.63,23.002,24.003,23.002
	c0.998,0,1.97,0.032,2.921-0.038c-0.932,1.787-1.6,3.826-1.6,5.914c0,3.52,1.895,6.387,4.289,8.717c-1.81,0-3.557,0.06-5.464,0.06
	c-17.498,0-30.966,11.148-30.966,22.705c0,3.011,1.042,5.721,2.887,8.082l3.012,3.013c5.896,4.715,15.611,7.409,26.364,7.409
	C76.74,128.177,87.759,116.856,87.759,105.475z M59.906,69.208c-8.119-0.242-15.835-9.083-17.236-19.742
	c-1.401-10.662,4.042-18.822,12.159-18.579c8.117,0.244,15.835,8.798,17.237,19.459S68.021,69.451,59.906,69.208z M35.897,106.292
	c0-9.013,10.835-16.518,22.929-16.386c2.823,0.03,5.454,0.483,7.84,1.257c6.566,4.565,11.275,7.146,12.605,12.349
	c0.25,1.055,0.386,2.141,0.386,3.25c0,9.197-5.927,16.384-22.931,16.384C44.631,123.146,35.897,115.489,35.897,106.292z"/>
</svg>
