<?xml version="1.0" encoding="UTF-8" standalone="no"?>
<!-- Created with Inkscape (http://www.inkscape.org/) -->

<svg
   xmlns:dc="http://purl.org/dc/elements/1.1/"
   xmlns:cc="http://creativecommons.org/ns#"
   xmlns:rdf="http://www.w3.org/1999/02/22-rdf-syntax-ns#"
   xmlns:svg="http://www.w3.org/2000/svg"
   xmlns="http://www.w3.org/2000/svg"
   xmlns:sodipodi="http://sodipodi.sourceforge.net/DTD/sodipodi-0.dtd"
   xmlns:inkscape="http://www.inkscape.org/namespaces/inkscape"
   id="svg2"
   version="1.1"
   inkscape:version="0.91 r13725"
   xml:space="preserve"
   width="1050.0001"
   height="470"
   viewBox="0 0 1050.0001 470"
   sodipodi:docname="logo-fest-2016-white.svg"
   inkscape:export-filename="/Users/auli/Documents/OuiShare/LOGO/LOGO_OUISHARE_FEST_2016-RGB-white.png"
   inkscape:export-xdpi="199.98801"
   inkscape:export-ydpi="199.98801"><metadata
     id="metadata8"><rdf:RDF><cc:Work
         rdf:about=""><dc:format>image/svg+xml</dc:format><dc:type
           rdf:resource="http://purl.org/dc/dcmitype/StillImage" /><dc:title /></cc:Work></rdf:RDF></metadata><defs
     id="defs6"><clipPath
       clipPathUnits="userSpaceOnUse"
       id="clipPath16"><path
         d="m 0,595.28 841.89,0 L 841.89,0 0,0 0,595.28 Z"
         id="path18"
         inkscape:connector-curvature="0" /></clipPath></defs><sodipodi:namedview
     pagecolor="#ffffff"
     bordercolor="#666666"
     borderopacity="1"
     objecttolerance="10"
     gridtolerance="10"
     guidetolerance="10"
     inkscape:pageopacity="0"
     inkscape:pageshadow="2"
     inkscape:window-width="1350"
     inkscape:window-height="972"
     id="namedview4"
     showgrid="false"
     inkscape:zoom="0.5"
     inkscape:cx="229.73005"
     inkscape:cy="258.87165"
     inkscape:window-x="76"
     inkscape:window-y="2"
     inkscape:window-maximized="0"
     inkscape:current-layer="g4371"
     showguides="true"
     inkscape:guide-bbox="true"
     fit-margin-top="0"
     fit-margin-left="0"
     fit-margin-right="0"
     fit-margin-bottom="0"><sodipodi:guide
       position="686.91043,190.02931"
       orientation="0,1"
       id="guide4290" /><sodipodi:guide
       position="688.58255,98.06311"
       orientation="0,1"
       id="guide4292" /><sodipodi:guide
       position="900.38348,275.30706"
       orientation="1,0"
       id="guide4294" /><sodipodi:guide
       position="150.71962,239.07795"
       orientation="1,0"
       id="guide4296" /></sodipodi:namedview><g
     id="g10"
     inkscape:groupmode="layer"
     inkscape:label="LOGO_OUISHARE_FEST_2015-RGB"
     transform="matrix(1.25,0,0,-1.25,-2,596.00002)"><flowRoot
       transform="matrix(0.8,0,0,-0.8,0,595.28)"
       style="font-style:normal;font-weight:normal;font-size:112.5px;line-height:125%;font-family:sans-serif;letter-spacing:0px;word-spacing:0px;fill:#000000;fill-opacity:1;stroke:none;stroke-width:1px;stroke-linecap:butt;stroke-linejoin:miter;stroke-opacity:1"
       id="flowRoot4277"
       xml:space="preserve"><flowRegion
         id="flowRegion4279"><rect
           style="font-size:112.5px"
           y="425.65042"
           x="558.07501"
           height="119.81268"
           width="353.13217"
           id="rect4281" /></flowRegion><flowPara
         style="font-style:normal;font-variant:normal;font-weight:bold;font-stretch:normal;font-size:112.5px;font-family:'ouishare stencil';-inkscape-font-specification:'ouishare stencil Bold'"
         id="flowPara4283">2016</flowPara></flowRoot><g
       id="g4371"
       style="fill:#ffffff"><path
         d="m 142.6016,237.9531 24.501,0 c 3.901,0 7.101,3.2 7.101,7.101 0,3.9 -3.2,7.1 -7.101,7.1 l -24.501,0 0,-14.201 z m -6.5,-51.503 c 0,-4.601 -3.4,-7.101 -7.101,-7.101 -3.6,0 -7.1,3.401 -7.1,7.101 l 0,58.604 c 0,3.9 3.2,7.1 7.1,7.1 l 7.101,0 0,-29.101 24.101,0 c 4.001,0 7.201,-3.201 7.201,-7.202 0,-3.9 -3.2,-7.1 -7.201,-7.1 l -24.101,0 0,-22.301 z"
         style="fill:#ffffff;fill-opacity:1;fill-rule:nonzero;stroke:none"
         id="path22"
         inkscape:connector-curvature="0" /><path
         d="m 243.5029,186.4502 c 0,-3.9 -3.2,-7.101 -7.101,-7.101 l -24.501,0 0,14.202 24.501,0 c 3.901,0 7.101,-3.201 7.101,-7.101 m -31.602,65.704 24.501,0 c 3.901,0 7.101,-3.2 7.101,-7.1 0,-3.901 -3.2,-7.101 -7.101,-7.101 l -24.501,0 0,14.201 z m -6.501,-72.805 -7.1,0 c -3.6,0 -7.1,3.5 -7.1,7.101 l 0,58.604 c 0,3.9 3.2,7.1 7.1,7.1 l 7.1,0 0,-29.101 24.102,0 c 4.001,0 7.201,-3.201 7.201,-7.202 0,-3.9 -3.2,-7.1 -7.201,-7.1 l -24.102,0 0,-29.402 z"
         style="fill:#ffffff;fill-opacity:1;fill-rule:nonzero;stroke:none"
         id="path26"
         inkscape:connector-curvature="0" /><path
         d="m 265.499,232.8525 c 0,12.001 10.5,21.002 24.201,21.002 7.801,0 15.301,-3.501 20.201,-6.4 2.201,-1.301 3.401,-3.601 3.401,-6.001 0,-4.201 -3.401,-7.101 -7.101,-7.101 -1.2,0 -2.4,0.301 -3.6,1.001 -4.6,2.699 -9.4,4.3 -12.901,4.3 -4.8,0 -10,-2.101 -10,-6.801 0,-1.7 0.2,-5.8 10.6,-8.8 l -5,-13.201 c -5.5,1.7 -9.801,3.9 -13.001,6.801 -4.5,4 -6.8,9.3 -6.8,15.2 m 49.703,-33.602 c 0,-12.3 -10.901,-20.601 -24.302,-20.601 -10.2,0 -26.901,4.5 -26.901,13.701 0,4 3.4,7.101 7.1,7.101 5.101,0 6.9,-6.702 19.801,-6.702 5.601,0 10.201,2.401 10.201,6.702 0,4.2 -4,7.099 -9.601,9.299 l 5.001,13.301 c 11.701,-4.5 18.701,-12.2 18.701,-22.401 l 0,-0.4 z"
         style="fill:#ffffff;fill-opacity:1;fill-rule:nonzero;stroke:none"
         id="path30"
         inkscape:connector-curvature="0" /><path
         d="m 365.5,231.3525 0,-45.003 c 0,-3.899 -3.2,-7.1 -7.101,-7.1 -3.899,0 -7.1,3.201 -7.1,7.1 l 0,45.003 14.201,0 z m 19.501,13.601 c 0,-3.9 -3.2,-7.1 -7.1,-7.1 l -38.902,0 c -3.901,0 -7.101,3.2 -7.101,7.1 0,3.9 3.2,7.1 7.101,7.1 l 38.902,0 c 3.9,0 7.1,-3.2 7.1,-7.1"
         style="fill:#ffffff;fill-opacity:1;fill-rule:nonzero;stroke:none"
         id="path34"
         inkscape:connector-curvature="0" /><path
         d="m 466.5488,179.3496 c 3.899,4.5 7.8,9.101 11.801,13.601 l 11.9,0 c 3.901,0 6.2,-3.5 6.2,-6.8 0,-3.2 -2.299,-6.801 -6.2,-6.801 l -23.701,0 z m 6.5,72.805 c 13.9,0 22.201,-10.801 22.201,-23.502 0,-6.8 -2.599,-11.601 -5.5,-15.401 -9.4,-12.3 -19.802,-23.202 -29.002,-33.902 l -1.4,0 c -3.9,0 -6.5,3.601 -6.5,7.101 0,2.4 1.099,4.1 1.9,5.1 1.8,2.3 22.801,27.501 23.602,28.501 2.099,2.7 3.7,5.001 3.7,8.601 0,5.1 -3.4,9.9 -9.101,9.9 -6.6,0 -7.8,-7.3 -13.001,-7.3 -3.5,0 -6.3,3.1 -6.3,7 0,0.901 0.299,2.801 1.299,4.201 2.901,4 8.402,9.701 18.102,9.701"
         style="fill:#ffffff;fill-opacity:1;fill-rule:nonzero;stroke:none"
         id="path38"
         inkscape:connector-curvature="0" /><path
         d="m 557.1836,192.9502 c 4.5,1 6.7,5.4 6.7,10.201 l 0,25.102 c 0,3.899 -2.2,9 -6.7,10.3 l 0,13.601 c 14.901,-1.301 19.701,-15.301 19.701,-23.802 l 0,-25.301 c 0,-9.201 -4.8,-22.501 -19.701,-23.702 l 0,13.601 z m -4.4,-13.601 c -14.901,1.201 -19.702,14.501 -19.702,23.702 l 0,25.301 c 0,8.501 4.801,22.501 19.702,23.802 l 0,-13.601 c -4.5,-1.3 -6.701,-6.401 -6.701,-10.3 l 0,-25.102 c 0,-4.801 2.201,-9.201 6.701,-10.201 l 0,-13.601 z"
         style="fill:#ffffff;fill-opacity:1;fill-rule:nonzero;stroke:none"
         id="path42"
         inkscape:connector-curvature="0" /><path
         d="m 628.1172,252.1543 c 3.4,0 6.601,-3.101 6.601,-7.201 l 0,-58.303 c 0,-4.4 -3.3,-7.301 -6.701,-7.301 -3.4,0 -6.6,2.901 -6.6,7.301 l 0,42.902 c -0.7,0.201 -2,-4.7 -6.5,-4.7 -3.5,0 -6.401,2.8 -6.401,6.901 0,1.799 0.5,3.6 2.201,5.299 l 12.6,12.702 c 1.3,1.299 2.8,2.4 4.8,2.4"
         style="fill:#ffffff;fill-opacity:1;fill-rule:nonzero;stroke:none"
         id="path46"
         inkscape:connector-curvature="0" /><path
         d="m 140.582,406.7925 0,9.296 c 0,9.694 7.248,14.608 14.493,14.608 7.117,0 14.234,-4.914 14.234,-14.608 l 0,-9.296 5.93,0 0,9.296 c 0,13.678 -10.147,20.585 -20.164,20.585 -10.277,0 -20.424,-6.907 -20.424,-20.585 l 0,-9.296 5.931,0 z m 28.727,-8.632 0,-11.82 c 0,-9.562 -7.248,-14.475 -14.497,-14.475 -7.115,0 -14.23,4.781 -14.23,14.475 l 0,11.82 -5.931,0 0,-11.82 c 0,-13.679 10.015,-20.452 20.161,-20.452 10.149,0 20.427,6.906 20.427,20.452 l 0,11.82 -5.93,0 z m 18.582,8.632 0,9.296 c 0,18.727 -13.837,33.6 -32.551,33.6 -18.713,0 -33.34,-14.476 -33.34,-33.6 l 0,-9.296 5.93,0 0,9.296 c 0,15.671 11.992,27.623 27.41,27.623 15.289,0 26.619,-12.218 26.619,-27.623 l 0,-9.296 5.932,0 z M 122,386.6065 c 0,-19.124 13.443,-33.599 32.285,-33.599 18.581,0 33.606,14.873 33.606,33.599 l 0,11.554 -5.932,0 0,-11.554 c 0,-15.405 -12.386,-27.623 -27.674,-27.623 -15.418,0 -26.355,11.952 -26.355,27.623 l 0,11.554 -5.93,0 0,-11.554 z"
         style="fill:#ffffff;fill-opacity:1;fill-rule:nonzero;stroke:none"
         id="path54"
         inkscape:connector-curvature="0" /><path
         d="m 248.5469,396.3008 0,-10.889 c 0,-11.29 -8.697,-15.273 -14.1,-15.273 -1.584,0 -15.025,0.399 -15.025,15.273 l 0,10.889 -5.928,0 0,-10.889 c 0,-20.718 18.711,-21.248 20.953,-21.248 7.643,0 20.031,5.578 20.031,21.248 l 0,10.889 -5.931,0 z m -29.125,8.634 0,33.863 c 0,5.18 -3.951,9.43 -8.696,9.43 -4.876,0 -8.698,-4.25 -8.698,-9.43 l 0,-33.863 5.931,0 0,33.863 c 0,1.859 1.186,3.454 2.767,3.454 1.45,0 2.768,-1.595 2.768,-3.454 l 0,-33.863 5.928,0 z m 46.653,0 0,33.863 c 0,5.18 -3.822,9.43 -8.698,9.43 -4.744,0 -8.83,-4.25 -8.83,-9.43 l 0,-33.863 5.931,0 0,33.863 c 0,1.859 1.319,3.454 2.899,3.454 1.58,0 2.767,-1.595 2.767,-3.454 l 0,-33.863 5.931,0 z m -64.047,-19.523 c 0,-11.686 4.216,-21.116 12.388,-27.358 8.037,-6.108 16.736,-6.774 20.031,-6.774 16.736,0 31.628,13.546 31.628,34.132 l 0,10.889 -5.931,0 0,-10.889 c 0,-16.999 -12.124,-28.155 -25.697,-28.155 -2.767,0 -9.883,0.531 -16.472,5.579 -6.59,5.045 -10.016,12.879 -10.016,22.576 l 0,10.889 -5.931,0 0,-10.889 z"
         style="fill:#ffffff;fill-opacity:1;fill-rule:nonzero;stroke:none"
         id="path58"
         inkscape:connector-curvature="0" /><path
         d="m 298.9248,406.7925 0,33.467 c 0,5.179 -4.216,9.429 -9.355,9.429 -5.141,0 -9.357,-4.25 -9.357,-9.429 l 0,-33.467 5.93,0 0,33.467 c 0,1.858 1.582,3.452 3.427,3.452 1.843,0 3.426,-1.594 3.426,-3.452 l 0,-33.467 5.929,0 z m -18.712,-8.632 0,-35.725 c 0,-5.179 4.216,-9.428 9.357,-9.428 5.139,0 9.355,4.249 9.355,9.428 l 0,35.725 -5.929,0 0,-35.725 c 0,-1.859 -1.583,-3.452 -3.426,-3.452 -1.845,0 -3.427,1.593 -3.427,3.452 l 0,35.725 -5.93,0 z"
         style="fill:#ffffff;fill-opacity:1;fill-rule:nonzero;stroke:none"
         id="path62"
         inkscape:connector-curvature="0" /><path
         d="m 380.5352,379.3018 c 0,13.545 -9.225,23.772 -24.645,29.749 l -6.585,-17.663 c 7.378,-2.921 12.649,-6.772 12.649,-12.351 0,-5.712 -6.064,-8.898 -13.44,-8.898 -17,0 -19.373,8.898 -26.094,8.898 -4.875,0 -9.357,-4.118 -9.357,-9.429 0,-12.218 22.007,-18.195 35.451,-18.195 17.658,0 32.021,11.023 32.021,27.358 l 0,0.531 z m -56.533,23.904 c 4.217,-3.85 9.883,-6.772 17.131,-9.029 l 6.588,17.529 c -13.704,3.985 -13.967,9.43 -13.967,11.687 0,6.242 6.851,9.03 13.179,9.03 4.611,0 10.936,-2.124 16.998,-5.709 1.582,-0.931 3.163,-1.328 4.745,-1.328 4.876,0 9.356,3.85 9.356,9.43 0,3.186 -1.581,6.241 -4.48,7.968 -6.458,3.85 -16.341,8.497 -26.619,8.497 -18.055,0 -31.892,-11.952 -31.892,-27.888 0,-7.836 3.031,-14.875 8.961,-20.187"
         style="fill:#ffffff;fill-opacity:1;fill-rule:nonzero;stroke:none"
         id="path66"
         inkscape:connector-curvature="0" /><path
         d="m 455.293,449.6885 c -5.14,0 -9.355,-4.25 -9.355,-9.429 l 0,-29.748 -11.995,0 0,-18.859 11.995,0 0,-29.217 c 0,-5.179 4.215,-9.428 9.355,-9.428 5.139,0 9.357,4.249 9.357,9.428 l 0,77.824 c 0,5.179 -4.218,9.429 -9.357,9.429 m -29.916,-39.177 -11.992,0 0,29.748 c 0,5.179 -4.215,9.429 -9.356,9.429 -5.139,0 -9.355,-4.25 -9.355,-9.429 l 0,-77.824 c 0,-5.179 4.216,-9.428 9.355,-9.428 5.141,0 9.356,4.249 9.356,9.428 l 0,29.217 11.992,0 0,18.859 z"
         style="fill:#ffffff;fill-opacity:1;fill-rule:nonzero;stroke:none"
         id="path70"
         inkscape:connector-curvature="0" /><path
         d="m 556.2744,365.8887 -29.649,77.69 c -1.45,3.719 -4.744,6.11 -8.698,6.11 -3.822,0 -7.381,-2.391 -8.698,-5.977 l -5.403,-14.341 c 4.218,-2.126 11.992,-8.9 16.474,-20.72 l 0.659,-1.594 c 2.371,-5.444 4.085,-11.951 4.875,-13.81 l 1.712,-4.382 -9.223,0 -7.247,-18.858 23.588,0 4.216,-10.89 c 1.45,-3.853 5.007,-6.109 8.698,-6.109 5.535,0 9.357,4.515 9.357,9.428 0,1.197 -0.266,2.258 -0.661,3.453 m -42.829,36.522 c -4.611,12.482 -9.356,16.732 -12.781,18.858 l -21.217,-55.38 c -0.395,-1.195 -0.658,-2.256 -0.658,-3.453 0,-4.913 3.82,-9.428 9.355,-9.428 3.822,0 7.248,2.256 8.697,5.976 l 16.604,43.427 z"
         style="fill:#ffffff;fill-opacity:1;fill-rule:nonzero;stroke:none"
         id="path74"
         inkscape:connector-curvature="0" /><path
         d="m 712.6445,370.272 -32.286,0 0,-18.859 32.286,0 c 5.139,0 9.355,4.252 9.355,9.429 0,5.18 -4.216,9.43 -9.355,9.43 m -32.286,58.964 32.286,0 c 5.139,0 9.355,4.249 9.355,9.43 0,5.179 -4.216,9.431 -9.355,9.431 l -32.286,0 0,-18.861 z m -8.568,-38.779 31.76,0 c 5.272,0 9.489,4.25 9.489,9.43 0,5.312 -4.217,9.562 -9.489,9.562 l -31.76,0 0,38.648 -9.355,0 c -5.139,0 -9.357,-4.252 -9.357,-9.431 l 0,-77.824 c 0,-4.78 4.613,-9.429 9.357,-9.429 l 9.355,0 0,39.044 z"
         style="fill:#ffffff;fill-opacity:1;fill-rule:nonzero;stroke:none"
         id="path78"
         inkscape:connector-curvature="0" /><path
         d="m 631.5605,399.4897 c 4.877,5.179 7.381,13.146 7.381,20.583 0,11.954 -6.194,21.779 -18.055,26.428 -4.084,1.596 -8.828,1.596 -13.971,1.596 l -9.617,0 0,-19.125 8.959,0 c 7.119,0 14.629,-1.462 14.629,-9.961 0,-8.499 -7.51,-10.093 -14.629,-10.093 l -8.959,0 0,-19.123 6.985,0 c 11.464,0 19.107,1.194 27.277,9.695 m -11.992,-42.498 c 1.582,-3.454 4.613,-5.446 8.17,-5.446 5.535,0 8.83,4.783 8.83,9.43 l 0,0.929 c 0,1.062 -0.263,2.126 -0.791,3.187 l -9.225,20.453 c -5.27,-2.656 -11.201,-4.118 -17.922,-4.384 l 10.938,-24.169 z m -48.496,81.54 0,-77.556 c 0,-5.311 3.953,-9.563 8.961,-9.563 5.009,0 9.093,4.252 9.093,9.563 l 0,87.121 -9.093,0 c -5.008,0 -8.961,-4.252 -8.961,-9.565"
         style="fill:#ffffff;fill-opacity:1;fill-rule:nonzero;stroke:none"
         id="path82"
         inkscape:connector-curvature="0" /><path
         inkscape:connector-curvature="0"
         id="path84"
         style="fill:#ffffff;fill-opacity:1;fill-rule:nonzero;stroke:none"
         d="m 722,131.28 -600,0 0,14 600,0 0,-14 z" /><path
         inkscape:connector-curvature="0"
         id="path86"
         style="fill:#ffffff;fill-opacity:1;fill-rule:nonzero;stroke:none"
         d="m 722,293.28 -600,0 0,14 600,0 0,-14 z" /><g
         transform="matrix(0.79756455,0,0,-0.80244288,0,595.28)"
         style="font-style:normal;font-weight:normal;font-size:40.12214279px;line-height:125%;font-family:sans-serif;letter-spacing:0px;word-spacing:0px;display:inline;fill:#ffffff;fill-opacity:1;stroke:none;stroke-width:1px;stroke-linecap:butt;stroke-linejoin:miter;stroke-opacity:1"
         id="text4286"><path
           d="m 872.56737,500.38453 c -5.26604,-1.88072 -7.64829,-7.39752 -7.64829,-12.91431 0,-9.52901 4.1376,-12.53817 7.64829,-13.41584 l 0,-17.17729 c -2.88378,0.25076 -5.39142,1.00305 -7.64829,1.88072 l 0,-2.63301 c 0,-8.02443 6.01832,-12.66356 10.90821,-12.66356 4.26298,0 7.64828,1.25382 10.78283,4.01222 1.50458,1.3792 3.63607,2.13149 5.64217,2.13149 4.38836,0 8.52596,-3.76145 8.52596,-8.52596 0,-9.40363 -15.92348,-14.66966 -24.95096,-14.66966 -14.4189,0 -27.96012,12.16203 -27.96012,29.71547 l 0,31.4708 c 0,14.66966 9.65439,28.21088 24.7002,30.21699 l 0,-17.42806 z m 26.07939,-34.10382 c -3.13454,-3.88683 -8.65134,-8.40057 -17.92958,-9.40362 l 0,17.17729 c 3.51068,1.00305 7.5229,3.88683 7.5229,13.41584 0,5.39141 -2.38225,10.90821 -7.5229,12.78893 l 0,17.55344 c 14.66965,-2.25687 24.57481,-14.92042 24.57481,-30.34237 0,-8.52596 -2.25687,-15.79809 -6.64523,-21.18951 z"
           style="font-style:normal;font-variant:normal;font-weight:bold;font-stretch:normal;font-size:125.38169861px;font-family:'ouishare stencil';-inkscape-font-specification:'ouishare stencil Bold';fill:#ffffff;fill-opacity:1"
           id="path4166" /></g></g><rect
       style="color:#000000;clip-rule:nonzero;display:inline;overflow:visible;visibility:visible;opacity:1;isolation:auto;mix-blend-mode:normal;color-interpolation:sRGB;color-interpolation-filters:linearRGB;solid-color:#000000;solid-opacity:1;fill:none;fill-opacity:1;fill-rule:nonzero;stroke:none;stroke-width:1px;stroke-linecap:butt;stroke-linejoin:miter;stroke-miterlimit:4;stroke-dasharray:none;stroke-dashoffset:0;stroke-opacity:1;color-rendering:auto;image-rendering:auto;shape-rendering:auto;text-rendering:auto;enable-background:accumulate"
       id="rect4163"
       width="843.20001"
       height="364.79999"
       x="0"
       y="-476.79999"
       transform="scale(1,-1)"
       ry="0" /><rect
       style="color:#000000;clip-rule:nonzero;display:inline;overflow:visible;visibility:visible;opacity:1;isolation:auto;mix-blend-mode:normal;color-interpolation:sRGB;color-interpolation-filters:linearRGB;solid-color:#000000;solid-opacity:1;fill:none;fill-opacity:1;fill-rule:nonzero;stroke:none;stroke-width:1px;stroke-linecap:butt;stroke-linejoin:miter;stroke-miterlimit:4;stroke-dasharray:none;stroke-dashoffset:0;stroke-opacity:1;color-rendering:auto;image-rendering:auto;shape-rendering:auto;text-rendering:auto;enable-background:accumulate"
       id="rect4165"
       width="840.00006"
       height="376"
       x="1.6"
       y="-476.80002"
       transform="scale(1,-1)" /></g></svg>