<?xml version="1.0" encoding="UTF-8" standalone="no"?>
<!-- Created with Inkscape (http://www.inkscape.org/) -->

<svg
   xmlns:dc="http://purl.org/dc/elements/1.1/"
   xmlns:cc="http://creativecommons.org/ns#"
   xmlns:rdf="http://www.w3.org/1999/02/22-rdf-syntax-ns#"
   xmlns:svg="http://www.w3.org/2000/svg"
   xmlns="http://www.w3.org/2000/svg"
   xmlns:sodipodi="http://sodipodi.sourceforge.net/DTD/sodipodi-0.dtd"
   xmlns:inkscape="http://www.inkscape.org/namespaces/inkscape"
   width="267.83093mm"
   height="101.81481mm"
   viewBox="0 0 949.00724 360.76114"
   id="svg2"
   version="1.1"
   inkscape:version="0.91 r13725"
   sodipodi:docname="logo_osf16_edges_white.svg">
  <defs
     id="defs4">
    <clipPath
       id="clipPath4188"
       clipPathUnits="userSpaceOnUse">
      <path
         inkscape:connector-curvature="0"
         id="path4190"
         d="m 0,595.28 841.89,0 L 841.89,0 0,0 0,595.28 Z" />
    </clipPath>
  </defs>
  <sodipodi:namedview
     id="base"
     pagecolor="#ffffff"
     bordercolor="#666666"
     borderopacity="1.0"
     inkscape:pageopacity="0.0"
     inkscape:pageshadow="2"
     inkscape:zoom="2.8284271"
     inkscape:cx="431.90508"
     inkscape:cy="16.767729"
     inkscape:document-units="px"
     inkscape:current-layer="g4182"
     showgrid="false"
     fit-margin-top="10"
     fit-margin-left="10"
     fit-margin-right="10"
     fit-margin-bottom="10"
     inkscape:window-width="1653"
     inkscape:window-height="1005"
     inkscape:window-x="27"
     inkscape:window-y="1"
     inkscape:window-maximized="1" />
  <metadata
     id="metadata7">
    <rdf:RDF>
      <cc:Work
         rdf:about="">
        <dc:format>image/svg+xml</dc:format>
        <dc:type
           rdf:resource="http://purl.org/dc/dcmitype/StillImage" />
        <dc:title></dc:title>
      </cc:Work>
    </rdf:RDF>
  </metadata>
  <g
     inkscape:label="Layer 1"
     inkscape:groupmode="layer"
     id="layer1"
     transform="translate(74.503636,-237.69592)">
    <g
       transform="matrix(1.25,0,0,-1.25,-117.24569,799.62399)"
       inkscape:label="LOGO_OUISHARE_FEST-RGB"
       id="g4182">
      <g
         id="g4186"
         clip-path="url(#clipPath4188)"
         style="fill:#ffffff">
        <g
           id="g4192"
           transform="translate(75.9701,388.5397)"
           style="fill:#ffffff">
          <path
             d="m 0,0 0,6.719 c 0,7.006 5.238,10.558 10.475,10.558 5.144,0 10.287,-3.552 10.287,-10.558 l 0,-6.719 4.286,0 0,6.719 c 0,9.885 -7.334,14.877 -14.573,14.877 -7.428,0 -14.761,-4.992 -14.761,-14.877 L -4.286,0 0,0 Z m 20.762,-6.239 0,-8.542 c 0,-6.912 -5.238,-10.463 -10.477,-10.463 C 5.143,-25.244 0,-21.787 0,-14.781 l 0,8.542 -4.286,0 0,-8.542 c 0,-9.887 7.238,-14.782 14.571,-14.782 7.335,0 14.763,4.991 14.763,14.782 l 0,8.542 -4.286,0 z M 34.192,0 l 0,6.719 c 0,13.534 -10.001,24.283 -23.526,24.283 -13.524,0 -24.096,-10.462 -24.096,-24.283 l 0,-6.719 4.286,0 0,6.719 c 0,11.325 8.667,19.964 19.81,19.964 11.05,0 19.239,-8.831 19.239,-19.964 l 0,-6.719 4.287,0 z M -13.43,-14.59 c 0,-13.821 9.716,-24.282 23.334,-24.282 13.429,0 24.288,10.749 24.288,24.282 l 0,8.351 -4.287,0 0,-8.351 c 0,-11.133 -8.952,-19.964 -20.001,-19.964 -11.143,0 -19.048,8.639 -19.048,19.964 l 0,8.351 -4.286,0 0,-8.351 z"
             style="fill:#ffffff;fill-opacity:1;fill-rule:nonzero;stroke:none"
             id="path4194"
             inkscape:connector-curvature="0" />
        </g>
        <g
           id="g4196"
           transform="translate(154.0003,380.9567)"
           style="fill:#ffffff">
          <path
             d="m 0,0 0,-7.87 c 0,-8.159 -6.286,-11.038 -10.19,-11.038 -1.145,0 -10.86,0.288 -10.86,11.038 l 0,7.87 -4.284,0 0,-7.87 c 0,-14.973 13.523,-15.356 15.144,-15.356 5.523,0 14.476,4.031 14.476,15.356 L 4.286,0 0,0 Z m -21.05,6.24 0,24.474 c 0,3.744 -2.855,6.815 -6.285,6.815 -3.524,0 -6.286,-3.071 -6.286,-6.815 l 0,-24.474 4.287,0 0,24.474 c 0,1.344 0.856,2.497 1.999,2.497 1.048,0 2.001,-1.153 2.001,-2.497 l 0,-24.474 4.284,0 z m 33.718,0 0,24.474 c 0,3.744 -2.762,6.815 -6.286,6.815 C 2.953,37.529 0,34.458 0,30.714 L 0,6.24 l 4.286,0 0,24.474 c 0,1.344 0.954,2.497 2.096,2.497 1.142,0 1.999,-1.153 1.999,-2.497 l 0,-24.474 4.287,0 z M -33.621,-7.87 c 0,-8.446 3.047,-15.261 8.953,-19.772 5.809,-4.415 12.096,-4.896 14.478,-4.896 12.095,0 22.858,9.79 22.858,24.668 l 0,7.87 -4.287,0 0,-7.87 c 0,-12.285 -8.762,-20.349 -18.571,-20.349 -2.001,0 -7.144,0.384 -11.906,4.033 -4.762,3.646 -7.238,9.308 -7.238,16.316 l 0,7.87 -4.287,0 0,-7.87 z"
             style="fill:#ffffff;fill-opacity:1;fill-rule:nonzero;stroke:none"
             id="path4198"
             inkscape:connector-curvature="0" />
        </g>
        <g
           id="g4200"
           transform="translate(190.4103,388.5397)"
           style="fill:#ffffff">
          <path
             d="m 0,0 0,24.188 c 0,3.743 -3.047,6.814 -6.762,6.814 -3.715,0 -6.762,-3.071 -6.762,-6.814 l 0,-24.188 4.286,0 0,24.188 c 0,1.343 1.143,2.495 2.476,2.495 1.333,0 2.477,-1.152 2.477,-2.495 L -4.285,0 0,0 Z m -13.524,-6.239 0,-25.82 c 0,-3.743 3.047,-6.813 6.762,-6.813 3.715,0 6.762,3.07 6.762,6.813 l 0,25.82 -4.285,0 0,-25.82 c 0,-1.343 -1.144,-2.495 -2.477,-2.495 -1.333,0 -2.476,1.152 -2.476,2.495 l 0,25.82 -4.286,0 z"
             style="fill:#ffffff;fill-opacity:1;fill-rule:nonzero;stroke:none"
             id="path4202"
             inkscape:connector-curvature="0" />
        </g>
        <g
           id="g4204"
           transform="translate(249.3932,368.6708)"
           style="fill:#ffffff">
          <path
             d="M 0,0 C 0,9.789 -6.667,17.181 -17.812,21.501 L -22.571,8.735 c 5.333,-2.111 9.142,-4.895 9.142,-8.926 0,-4.128 -4.383,-6.431 -9.714,-6.431 -12.287,0 -14.001,6.431 -18.859,6.431 -3.523,0 -6.762,-2.977 -6.762,-6.815 0,-8.83 15.905,-13.15 25.621,-13.15 C -10.381,-20.156 0,-12.19 0,-0.383 L 0,0 Z m -40.859,17.277 c 3.048,-2.783 7.144,-4.894 12.381,-6.526 l 4.762,12.669 c -9.904,2.879 -10.095,6.815 -10.095,8.446 0,4.512 4.952,6.527 9.526,6.527 3.332,0 7.903,-1.535 12.285,-4.126 1.143,-0.673 2.285,-0.96 3.429,-0.96 3.524,0 6.762,2.783 6.762,6.815 0,2.303 -1.143,4.511 -3.238,5.759 -4.668,2.782 -11.81,6.141 -19.238,6.141 -13.05,0 -23.05,-8.638 -23.05,-20.156 0,-5.663 2.191,-10.75 6.476,-14.589"
             style="fill:#ffffff;fill-opacity:1;fill-rule:nonzero;stroke:none"
             id="path4206"
             inkscape:connector-curvature="0" />
        </g>
        <g
           id="g4208"
           transform="translate(303.4235,419.542)"
           style="fill:#ffffff">
          <path
             d="m 0,0 c -3.715,0 -6.762,-3.071 -6.762,-6.815 l 0,-21.5 -8.668,0 0,-13.629 8.668,0 0,-21.117 c 0,-3.743 3.047,-6.814 6.762,-6.814 3.714,0 6.763,3.071 6.763,6.814 l 0,56.246 C 6.763,-3.071 3.714,0 0,0 m -21.621,-28.315 -8.668,0 0,21.5 c 0,3.744 -3.046,6.815 -6.761,6.815 -3.715,0 -6.762,-3.071 -6.762,-6.815 l 0,-56.246 c 0,-3.743 3.047,-6.814 6.762,-6.814 3.715,0 6.761,3.071 6.761,6.814 l 0,21.117 8.668,0 0,13.629 z"
             style="fill:#ffffff;fill-opacity:1;fill-rule:nonzero;stroke:none"
             id="path4210"
             inkscape:connector-curvature="0" />
        </g>
        <g
           id="g4212"
           transform="translate(376.4065,358.9767)"
           style="fill:#ffffff">
          <path
             d="m 0,0 -21.429,56.15 c -1.047,2.687 -3.428,4.415 -6.286,4.415 -2.762,0 -5.334,-1.728 -6.286,-4.319 l -3.905,-10.365 c 3.049,-1.536 8.667,-6.432 11.907,-14.975 l 0.475,-1.152 c 1.714,-3.935 2.953,-8.637 3.524,-9.981 l 1.238,-3.167 -6.667,0 -5.237,-13.63 17.047,0 3.048,-7.87 c 1.047,-2.785 3.619,-4.415 6.286,-4.415 4,0 6.763,3.262 6.763,6.813 C 0.478,-1.63 0.286,-0.863 0,0 m -30.954,26.396 c -3.333,9.022 -6.762,12.093 -9.238,13.629 L -55.526,0 c -0.285,-0.863 -0.476,-1.63 -0.476,-2.496 0,-3.551 2.762,-6.813 6.762,-6.813 2.762,0 5.238,1.63 6.286,4.318 l 12,31.387 z"
             style="fill:#ffffff;fill-opacity:1;fill-rule:nonzero;stroke:none"
             id="path4214"
             inkscape:connector-curvature="0" />
        </g>
        <g
           id="g4216"
           transform="translate(489.421,362.145)"
           style="fill:#ffffff">
          <path
             d="m 0,0 -23.334,0 0,-13.63 23.334,0 c 3.714,0 6.762,3.073 6.762,6.815 C 6.762,-3.072 3.714,0 0,0 m -23.334,42.615 23.334,0 c 3.714,0 6.762,3.071 6.762,6.816 0,3.743 -3.048,6.816 -6.762,6.816 l -23.334,0 0,-13.632 z m -6.193,-28.027 22.955,0 c 3.81,0 6.857,3.073 6.857,6.815 0,3.84 -3.047,6.912 -6.857,6.912 l -22.955,0 0,27.932 -6.761,0 c -3.714,0 -6.763,-3.073 -6.763,-6.816 l 0,-56.246 c 0,-3.455 3.334,-6.815 6.763,-6.815 l 6.761,0 0,28.218 z"
             style="fill:#ffffff;fill-opacity:1;fill-rule:nonzero;stroke:none"
             id="path4218"
             inkscape:connector-curvature="0" />
        </g>
        <g
           id="g4220"
           transform="translate(430.8186,383.2618)"
           style="fill:#ffffff">
          <path
             d="m 0,0 c 3.525,3.743 5.334,9.501 5.334,14.876 0,8.639 -4.476,15.74 -13.048,19.1 -2.952,1.154 -6.381,1.154 -10.098,1.154 l -6.95,0 0,-13.823 6.475,0 c 5.145,0 10.573,-1.056 10.573,-7.199 0,-6.142 -5.428,-7.294 -10.573,-7.294 l -6.475,0 0,-13.821 5.048,0 C -11.429,-7.007 -5.905,-6.144 0,0 m -8.667,-30.715 c 1.143,-2.496 3.334,-3.936 5.905,-3.936 4,0 6.381,3.457 6.381,6.816 l 0,0.671 c 0,0.767 -0.189,1.536 -0.571,2.303 l -6.667,14.782 c -3.81,-1.92 -8.096,-2.976 -12.953,-3.168 l 7.905,-17.468 z m -35.05,58.931 0,-56.051 c 0,-3.839 2.857,-6.912 6.476,-6.912 3.62,0 6.573,3.073 6.573,6.912 l 0,62.965 -6.573,0 c -3.619,0 -6.476,-3.073 -6.476,-6.914"
             style="fill:#ffffff;fill-opacity:1;fill-rule:nonzero;stroke:none"
             id="path4222"
             inkscape:connector-curvature="0" />
        </g>
        <path
           d="m 764.55,189.28 -701,0 0,10 701,0 0,-10 z"
           style="fill:#ffffff;fill-opacity:1;fill-rule:nonzero;stroke:none"
           id="path4224"
           inkscape:connector-curvature="0" />
        <path
           d="m 62.743,306.53 702.31,0 0,10.118 -702.31,0 0,-10.118 z"
           style="fill:#ffffff;fill-opacity:1;fill-rule:nonzero;stroke:none"
           id="path4226"
           inkscape:connector-curvature="0" />
        <g
           id="g4228"
           transform="translate(101.0483,236.5669)"
           style="fill:#ffffff">
          <path
             d="m 0,0 c 0,-2.255 -1.851,-4.105 -4.106,-4.105 l -14.166,0 0,8.21 14.166,0 C -1.851,4.105 0,2.255 0,0 m -18.272,37.988 14.166,0 C -1.851,37.988 0,36.138 0,33.883 0,31.628 -1.851,29.777 -4.106,29.777 l -14.166,0 0,8.211 z m -3.758,-42.093 -4.106,0 c -2.08,0 -4.105,2.024 -4.105,4.105 l 0,33.883 c 0,2.255 1.851,4.105 4.105,4.105 l 4.106,0 0,-16.826 13.934,0 c 2.313,0 4.163,-1.85 4.163,-4.163 0,-2.255 -1.85,-4.105 -4.163,-4.105 l -13.934,0 0,-16.999 z"
             style="fill:#ffffff;fill-opacity:1;fill-rule:nonzero;stroke:none"
             id="path4230"
             inkscape:connector-curvature="0" />
        </g>
        <g
           id="g4232"
           transform="translate(130.5923,245.5291)"
           style="fill:#ffffff">
          <path
             d="m 0,0 c 1.561,0.231 2.833,1.156 3.758,2.486 l 2.198,3.238 8.036,-12.489 c 0.406,-0.694 0.579,-1.446 0.637,-2.197 0,-2.082 -1.677,-4.106 -4.106,-4.106 -1.33,0 -2.66,0.694 -3.411,1.909 L 0,0 Z m 14.224,25.152 c 0,-0.81 -0.232,-1.619 -0.695,-2.313 L 1.388,4.857 C 0.636,3.758 -0.636,3.064 -1.966,3.064 c -1.387,0 -2.659,0.694 -3.411,1.85 l -12.085,18.041 c -0.462,0.693 -0.693,1.445 -0.693,2.255 0,2.081 1.677,4.105 4.105,4.105 1.908,0 2.659,-0.694 3.412,-1.851 1.907,-2.948 5.608,-8.326 8.73,-12.894 l 8.673,12.894 c 0.752,1.157 2.081,1.793 3.412,1.793 0.751,0 1.56,-0.231 2.254,-0.694 1.214,-0.809 1.793,-2.081 1.793,-3.411 M -7.748,2.544 C -6.823,1.156 -5.377,0.289 -3.758,0 l -7.228,-11.159 c -0.809,-1.215 -2.139,-1.909 -3.469,-1.909 -2.428,0 -4.048,2.082 -4.048,4.106 0,0.751 0.174,1.445 0.636,2.197 l 7.979,12.489 2.14,-3.18 z"
             style="fill:#ffffff;fill-opacity:1;fill-rule:nonzero;stroke:none"
             id="path4234"
             inkscape:connector-curvature="0" />
        </g>
        <g
           id="g4236"
           transform="translate(172.3953,249.1718)"
           style="fill:#ffffff">
          <path
             d="m 0,0 -3.816,0 0,8.326 4.741,0 c 3.296,0 6.765,0.694 6.765,4.394 0,3.701 -3.469,4.337 -6.765,4.337 l -4.741,0 0,8.326 5.031,0 c 2.37,0 4.568,0 6.475,-0.694 5.494,-2.023 8.327,-6.302 8.327,-11.506 0,-3.296 -1.157,-6.707 -3.412,-8.962 C 8.846,0.52 5.32,0 0,0 m -11.795,25.383 4.163,0 0,-37.93 c 0,-2.313 -1.85,-4.163 -4.163,-4.163 -2.313,0 -4.164,1.85 -4.164,4.163 l 0,33.767 c 0,2.313 1.851,4.163 4.164,4.163"
             style="fill:#ffffff;fill-opacity:1;fill-rule:nonzero;stroke:none"
             id="path4238"
             inkscape:connector-curvature="0" />
        </g>
        <g
           id="g4240"
           transform="translate(227.2076,236.5669)"
           style="fill:#ffffff">
          <path
             d="m 0,0 c 0,-2.255 -1.85,-4.105 -4.105,-4.105 l -14.629,0 0,8.21 14.629,0 C -1.85,4.105 0,2.255 0,0 m -22.492,-4.105 -4.105,0 c -2.429,0 -4.106,1.676 -4.106,4.105 l 0,33.883 c 0,2.255 1.851,4.105 4.106,4.105 2.255,0 4.105,-1.85 4.105,-4.105 l 0,-37.988 z"
             style="fill:#ffffff;fill-opacity:1;fill-rule:nonzero;stroke:none"
             id="path4242"
             inkscape:connector-curvature="0" />
        </g>
        <g
           id="g4244"
           transform="translate(262.7078,252.1206)"
           style="fill:#ffffff">
          <path
             d="m 0,0 0,-5.031 c 0,-8.152 -6.591,-14.628 -14.744,-14.628 -8.269,0 -14.166,6.302 -14.166,14.628 l 0,5.031 8.152,0 0,-5.146 c 0,-4.221 3.123,-6.302 6.245,-6.302 3.18,0 6.36,2.139 6.36,6.302 L -8.153,0 0,0 Z m -28.91,3.758 0,4.048 c 0,8.326 6.418,14.628 14.628,14.628 C -6.071,22.434 0,15.958 0,7.806 l 0,-4.048 -8.153,0 0,4.048 c 0,4.22 -3.122,6.36 -6.245,6.36 -3.179,0 -6.36,-2.14 -6.36,-6.36 l 0,-4.048 -8.152,0 z"
             style="fill:#ffffff;fill-opacity:1;fill-rule:nonzero;stroke:none"
             id="path4246"
             inkscape:connector-curvature="0" />
        </g>
        <g
           id="g4248"
           transform="translate(289.6517,245.4134)"
           style="fill:#ffffff">
          <path
             d="m 0,0 c 2.949,0.116 5.55,0.752 7.863,1.908 l 4.048,-8.904 c 0.231,-0.463 0.347,-0.926 0.347,-1.388 l 0,-0.405 c 0,-2.023 -1.446,-4.105 -3.875,-4.105 -1.561,0 -2.89,0.868 -3.584,2.371 L 0,0 Z m -1.908,3.758 -3.065,0 0,8.326 3.932,0 c 3.122,0 6.418,0.694 6.418,4.395 0,3.7 -3.296,4.336 -6.418,4.336 l -3.932,0 0,8.326 4.221,0 c 2.255,0 4.336,0 6.129,-0.693 5.204,-2.024 7.922,-6.303 7.922,-11.507 0,-3.238 -1.099,-6.707 -3.239,-8.962 C 6.475,4.279 3.122,3.758 -1.908,3.758 m -10.64,25.383 3.99,0 0,-37.93 c 0,-2.313 -1.792,-4.163 -3.99,-4.163 -2.196,0 -3.931,1.85 -3.931,4.163 l 0,33.768 c 0,2.312 1.735,4.162 3.931,4.162"
             style="fill:#ffffff;fill-opacity:1;fill-rule:nonzero;stroke:none"
             id="path4250"
             inkscape:connector-curvature="0" />
        </g>
        <g
           id="g4252"
           transform="translate(323.4171,252.1206)"
           style="fill:#ffffff">
          <path
             d="m 0,0 0,-15.554 c 0,-2.255 -1.851,-4.105 -4.105,-4.105 -2.256,0 -4.106,1.85 -4.106,4.105 L -8.211,0 0,0 Z m -8.211,3.758 0,14.571 c 0,2.255 1.85,4.105 4.106,4.105 2.254,0 4.105,-1.85 4.105,-4.105 l 0,-14.571 -8.211,0 z"
             style="fill:#ffffff;fill-opacity:1;fill-rule:nonzero;stroke:none"
             id="path4254"
             inkscape:connector-curvature="0" />
        </g>
        <g
           id="g4256"
           transform="translate(357.7033,256.5149)"
           style="fill:#ffffff">
          <path
             d="m 0,0 0,13.819 c 0,2.544 2.081,4.221 4.221,4.221 2.082,0 4.162,-1.677 4.162,-4.221 l 0,-22.954 c -2.254,0.751 -4.047,2.601 -6.07,5.666 L 0,0 Z m -14.455,-6.071 0,-13.761 c 0,-2.602 -2.082,-4.221 -4.163,-4.221 -2.14,0 -4.221,1.619 -4.221,4.221 l 0,21.856 c 2.544,-0.694 4.799,-2.429 6.997,-5.898 l 1.387,-2.197 z m 22.838,-6.997 0,-6.533 c 0,-2.66 -2.138,-4.221 -4.162,-4.221 -1.908,0 -2.891,0.867 -3.643,1.677 l -13.299,20.353 c -1.907,2.948 -5.146,6.88 -10.118,7.69 l 0,7.516 c 0,2.718 2.197,4.337 4.336,4.337 1.562,0 2.603,-0.752 3.527,-1.561 l 0.232,-0.174 13.877,-21.567 c 1.965,-3.006 4.74,-6.418 9.25,-7.517"
             style="fill:#ffffff;fill-opacity:1;fill-rule:nonzero;stroke:none"
             id="path4258"
             inkscape:connector-curvature="0" />
        </g>
        <g
           id="g4260"
           transform="translate(406.7916,252.988)"
           style="fill:#ffffff">
          <path
             d="m 0,0 0,-6.187 c 0,-9.54 -7.285,-14.339 -14.802,-14.339 -6.36,0 -9.945,2.775 -11.853,5.146 -2.428,3.006 -3.701,7.112 -3.701,12.258 l 0,1.792 8.211,0 0,-1.792 c 0,-9.194 5.031,-9.194 7.401,-9.194 3.932,0 6.534,1.966 6.534,6.129 l 0,2.082 -3.701,0 c -2.254,0 -4.105,1.85 -4.105,4.105 0,2.255 1.851,4.105 4.105,4.105 l 7.806,0 C -1.851,4.105 0,2.255 0,0 m -22.145,2.428 -8.211,0 0,1.908 c 0,5.146 1.273,9.252 3.701,12.258 1.908,2.371 5.493,5.146 11.853,5.146 4.394,0 10.292,-2.717 12.894,-6.996 0.289,-0.52 0.463,-1.214 0.463,-1.908 0,-2.255 -1.851,-4.105 -4.105,-4.105 -1.677,0 -3.123,1.445 -3.932,2.255 -0.636,0.636 -2.718,2.775 -5.204,2.775 -2.486,0 -7.459,-0.231 -7.459,-9.425 l 0,-1.908 z"
             style="fill:#ffffff;fill-opacity:1;fill-rule:nonzero;stroke:none"
             id="path4262"
             inkscape:connector-curvature="0" />
        </g>
        <g
           id="g4264"
           transform="translate(450.7903,262.5283)"
           style="fill:#ffffff">
          <path
             d="m 0,0 0,-26.019 c 0,-2.255 -1.85,-4.106 -4.106,-4.106 -2.254,0 -4.105,1.851 -4.105,4.106 L -8.211,0 0,0 Z m 11.275,7.864 c 0,-2.255 -1.851,-4.106 -4.106,-4.106 l -22.491,0 c -2.256,0 -4.106,1.851 -4.106,4.106 0,2.254 1.85,4.105 4.106,4.105 l 22.491,0 c 2.255,0 4.106,-1.851 4.106,-4.105"
             style="fill:#ffffff;fill-opacity:1;fill-rule:nonzero;stroke:none"
             id="path4266"
             inkscape:connector-curvature="0" />
        </g>
        <g
           id="g4268"
           transform="translate(501.7285,270.5074)"
           style="fill:#ffffff">
          <path
             d="m 0,0 0,-33.883 c 0,-2.255 -1.851,-4.105 -4.105,-4.105 -2.255,0 -4.105,1.85 -4.105,4.105 l 0,12.721 -5.262,0 0,8.21 5.262,0 0,12.952 c 0,2.255 1.85,4.105 4.105,4.105 C -1.851,4.105 0,2.255 0,0 m -17.23,-21.162 -5.262,0 0,-12.721 c 0,-2.255 -1.85,-4.105 -4.105,-4.105 -2.255,0 -4.105,1.85 -4.105,4.105 l 0,33.883 c 0,2.255 1.85,4.105 4.105,4.105 2.255,0 4.105,-1.85 4.105,-4.105 l 0,-12.952 5.262,0 0,-8.21 z"
             style="fill:#ffffff;fill-opacity:1;fill-rule:nonzero;stroke:none"
             id="path4270"
             inkscape:connector-curvature="0" />
        </g>
        <g
           id="g4272"
           transform="translate(543.5315,236.5669)"
           style="fill:#ffffff">
          <path
             d="m 0,0 c 0,-2.255 -1.851,-4.105 -4.105,-4.105 l -14.167,0 0,8.21 14.167,0 C -1.851,4.105 0,2.255 0,0 m -18.272,37.988 14.167,0 C -1.851,37.988 0,36.138 0,33.883 0,31.628 -1.851,29.777 -4.105,29.777 l -14.167,0 0,8.211 z m -3.757,-42.093 -4.106,0 c -2.081,0 -4.106,2.024 -4.106,4.105 l 0,33.883 c 0,2.255 1.851,4.105 4.106,4.105 l 4.106,0 0,-16.826 13.934,0 c 2.313,0 4.163,-1.85 4.163,-4.163 0,-2.255 -1.85,-4.105 -4.163,-4.105 l -13.934,0 0,-16.999 z"
             style="fill:#ffffff;fill-opacity:1;fill-rule:nonzero;stroke:none"
             id="path4274"
             inkscape:connector-curvature="0" />
        </g>
        <g
           id="g4276"
           transform="translate(601.8693,236.5669)"
           style="fill:#ffffff">
          <path
             d="m 0,0 c 0,-2.255 -1.85,-4.105 -4.106,-4.105 l -14.165,0 0,8.21 14.165,0 C -1.85,4.105 0,2.255 0,0 m -18.271,37.988 14.165,0 C -1.85,37.988 0,36.138 0,33.883 0,31.628 -1.85,29.777 -4.106,29.777 l -14.165,0 0,8.211 z m -3.759,-42.093 -4.105,0 c -2.081,0 -4.105,2.024 -4.105,4.105 l 0,33.883 c 0,2.255 1.85,4.105 4.105,4.105 l 4.105,0 0,-16.826 13.935,0 c 2.312,0 4.163,-1.85 4.163,-4.163 0,-2.255 -1.851,-4.105 -4.163,-4.105 l -13.935,0 0,-16.999 z"
             style="fill:#ffffff;fill-opacity:1;fill-rule:nonzero;stroke:none"
             id="path4278"
             inkscape:connector-curvature="0" />
        </g>
        <g
           id="g4280"
           transform="translate(644.3082,262.2393)"
           style="fill:#ffffff">
          <path
             d="m 0,0 c 0,6.765 -5.089,12.315 -12.432,12.315 l -6.706,0 0,-8.268 6.764,0 c 2.371,0 4.163,-1.388 4.163,-3.874 l 0,-17.462 c 0,-3.758 -3.989,-4.336 -7.17,-4.336 -1.33,0 -2.543,0.116 -3.237,0.116 -0.232,0 -0.405,0 -0.52,-0.058 l 0,-8.211 6.648,0 c 5.724,0 12.49,5.551 12.49,12.316 L 0,0 Z m -27.002,-29.778 c -2.313,0 -4.163,1.851 -4.163,4.164 l 0,33.767 c 0,2.312 1.85,4.162 4.278,4.162 l 4.047,0 0,-42.093 -4.162,0 z"
             style="fill:#ffffff;fill-opacity:1;fill-rule:nonzero;stroke:none"
             id="path4282"
             inkscape:connector-curvature="0" />
        </g>
        <g
           id="g4284"
           transform="translate(684.4914,252.988)"
           style="fill:#ffffff">
          <path
             d="m 0,0 0,-6.187 c 0,-9.54 -7.285,-14.339 -14.802,-14.339 -6.36,0 -9.945,2.775 -11.853,5.146 -2.429,3.006 -3.701,7.112 -3.701,12.258 l 0,1.792 8.211,0 0,-1.792 c 0,-9.194 5.03,-9.194 7.401,-9.194 3.932,0 6.533,1.966 6.533,6.129 l 0,2.082 -3.699,0 c -2.256,0 -4.106,1.85 -4.106,4.105 0,2.255 1.85,4.105 4.106,4.105 l 7.804,0 C -1.85,4.105 0,2.255 0,0 m -22.145,2.428 -8.211,0 0,1.908 c 0,5.146 1.272,9.252 3.701,12.258 1.908,2.371 5.493,5.146 11.853,5.146 4.395,0 10.293,-2.717 12.894,-6.996 0.29,-0.52 0.463,-1.214 0.463,-1.908 0,-2.255 -1.85,-4.105 -4.106,-4.105 -1.676,0 -3.122,1.445 -3.931,2.255 -0.636,0.636 -2.718,2.775 -5.204,2.775 -2.487,0 -7.459,-0.231 -7.459,-9.425 l 0,-1.908 z"
             style="fill:#ffffff;fill-opacity:1;fill-rule:nonzero;stroke:none"
             id="path4286"
             inkscape:connector-curvature="0" />
        </g>
        <g
           id="g4288"
           transform="translate(725.0798,236.5669)"
           style="fill:#ffffff">
          <path
             d="m 0,0 c 0,-2.255 -1.851,-4.105 -4.105,-4.105 l -14.167,0 0,8.21 14.167,0 C -1.851,4.105 0,2.255 0,0 m -18.272,37.988 14.167,0 C -1.851,37.988 0,36.138 0,33.883 0,31.628 -1.851,29.777 -4.105,29.777 l -14.167,0 0,8.211 z m -3.757,-42.093 -4.106,0 c -2.081,0 -4.106,2.024 -4.106,4.105 l 0,33.883 c 0,2.255 1.851,4.105 4.106,4.105 l 4.106,0 0,-16.826 13.933,0 c 2.314,0 4.164,-1.85 4.164,-4.163 0,-2.255 -1.85,-4.105 -4.164,-4.105 l -13.933,0 0,-16.999 z"
             style="fill:#ffffff;fill-opacity:1;fill-rule:nonzero;stroke:none"
             id="path4290"
             inkscape:connector-curvature="0" />
        </g>
        <g
           id="g4292"
           transform="translate(735.8912,263.3954)"
           style="fill:#ffffff">
          <path
             d="m 0,0 c 0,6.939 6.071,12.143 13.992,12.143 4.51,0 8.846,-2.024 11.679,-3.701 1.273,-0.752 1.967,-2.082 1.967,-3.469 0,-2.429 -1.967,-4.106 -4.105,-4.106 -0.695,0 -1.388,0.174 -2.082,0.578 -2.66,1.562 -5.435,2.487 -7.459,2.487 C 11.217,3.932 8.21,2.718 8.21,0 c 0,-0.983 0.116,-3.354 6.129,-5.088 l -2.891,-7.632 c -3.18,0.983 -5.666,2.255 -7.517,3.931 C 1.33,-6.476 0,-3.411 0,0 m 28.736,-19.427 c 0,-7.112 -6.302,-11.911 -14.05,-11.911 -5.897,0 -15.554,2.601 -15.554,7.921 0,2.313 1.966,4.105 4.105,4.105 2.949,0 3.99,-3.874 11.449,-3.874 3.238,0 5.898,1.388 5.898,3.874 0,2.429 -2.314,4.106 -5.551,5.377 l 2.891,7.69 c 6.765,-2.601 10.812,-7.054 10.812,-12.951 l 0,-0.231 z"
             style="fill:#ffffff;fill-opacity:1;fill-rule:nonzero;stroke:none"
             id="path4294"
             inkscape:connector-curvature="0" />
        </g>
        <g
           id="g4296"
           transform="translate(547.6491,405.7972)"
           style="fill:#ffffff">
          <path
             d="m 0,0 23.728,0 c 3.778,0 6.877,3.099 6.877,6.877 0,3.776 -3.099,6.875 -6.877,6.875 L 0,13.752 0,0 Z m -6.295,-49.877 c 0,-4.455 -3.293,-6.876 -6.876,-6.876 -3.487,0 -6.876,3.292 -6.876,6.876 l 0,56.754 c 0,3.776 3.099,6.875 6.876,6.875 l 6.876,0 0,-28.182 23.341,0 c 3.874,0 6.973,-3.099 6.973,-6.973 0,-3.778 -3.099,-6.877 -6.973,-6.877 l -23.341,0 0,-21.597 z"
             style="fill:#ffffff;fill-opacity:1;fill-rule:nonzero;stroke:none"
             id="path4298"
             inkscape:connector-curvature="0" />
        </g>
        <g
           id="g4300"
           transform="translate(637.33,355.9206)"
           style="fill:#ffffff">
          <path
             d="m 0,0 c 0,-3.777 -3.099,-6.877 -6.877,-6.877 l -23.727,0 0,13.753 23.727,0 C -3.099,6.876 0,3.777 0,0 m -30.604,63.629 23.727,0 C -3.099,63.629 0,60.53 0,56.753 0,52.976 -3.099,49.877 -6.877,49.877 l -23.727,0 0,13.752 z m -6.296,-70.506 -6.876,0 c -3.486,0 -6.876,3.39 -6.876,6.877 l 0,56.753 c 0,3.777 3.099,6.876 6.876,6.876 l 6.876,0 0,-28.182 23.341,0 c 3.874,0 6.973,-3.1 6.973,-6.974 0,-3.777 -3.099,-6.876 -6.973,-6.876 l -23.341,0 0,-28.474 z"
             style="fill:#ffffff;fill-opacity:1;fill-rule:nonzero;stroke:none"
             id="path4302"
             inkscape:connector-curvature="0" />
        </g>
        <g
           id="g4304"
           transform="translate(650.5955,400.858)"
           style="fill:#ffffff">
          <path
             d="m 0,0 c 0,11.622 10.169,20.338 23.437,20.338 7.555,0 14.819,-3.39 19.564,-6.198 2.131,-1.259 3.293,-3.487 3.293,-5.811 0,-4.067 -3.293,-6.876 -6.877,-6.876 -1.161,0 -2.324,0.29 -3.486,0.968 -4.454,2.615 -9.104,4.165 -12.494,4.165 -4.648,0 -9.684,-2.034 -9.684,-6.586 0,-1.647 0.194,-5.617 10.266,-8.523 L 19.177,-21.307 C 13.85,-19.66 9.685,-17.53 6.586,-14.721 2.227,-10.847 0,-5.714 0,0 m 48.134,-32.541 c 0,-11.912 -10.557,-19.951 -23.534,-19.951 -9.878,0 -26.053,4.358 -26.053,13.268 0,3.874 3.294,6.877 6.877,6.877 4.939,0 6.683,-6.49 19.176,-6.49 5.423,0 9.878,2.325 9.878,6.49 0,4.067 -3.873,6.876 -9.297,9.006 l 4.842,12.881 c 11.332,-4.358 18.111,-11.815 18.111,-21.694 l 0,-0.387 z"
             style="fill:#ffffff;fill-opacity:1;fill-rule:nonzero;stroke:none"
             id="path4306"
             inkscape:connector-curvature="0" />
        </g>
        <g
           id="g4308"
           transform="translate(739.4046,399.4055)"
           style="fill:#ffffff">
          <path
             d="m 0,0 0,-43.582 c 0,-3.777 -3.099,-6.876 -6.876,-6.876 -3.777,0 -6.876,3.099 -6.876,6.876 L -13.752,0 0,0 Z m 18.886,13.172 c 0,-3.778 -3.099,-6.877 -6.877,-6.877 l -37.674,0 c -3.777,0 -6.876,3.099 -6.876,6.877 0,3.776 3.099,6.875 6.876,6.875 l 37.674,0 c 3.778,0 6.877,-3.099 6.877,-6.875"
             style="fill:#ffffff;fill-opacity:1;fill-rule:nonzero;stroke:none"
             id="path4310"
             inkscape:connector-curvature="0" />
        </g>
      </g>
    </g>
  </g>
</svg>
