<?xml version="1.0" encoding="UTF-8" standalone="no"?>
<!-- Created with Inkscape (http://www.inkscape.org/) -->

<svg
   xmlns:dc="http://purl.org/dc/elements/1.1/"
   xmlns:cc="http://creativecommons.org/ns#"
   xmlns:rdf="http://www.w3.org/1999/02/22-rdf-syntax-ns#"
   xmlns:svg="http://www.w3.org/2000/svg"
   xmlns="http://www.w3.org/2000/svg"
   xmlns:sodipodi="http://sodipodi.sourceforge.net/DTD/sodipodi-0.dtd"
   xmlns:inkscape="http://www.inkscape.org/namespaces/inkscape"
   id="svg2"
   version="1.1"
   inkscape:version="0.91 r13725"
   xml:space="preserve"
   width="752.22223"
   height="561.39001"
   viewBox="0 0 752.22221 561.39001"
   sodipodi:docname="logo-fest-forward-2016-blue.svg"
   inkscape:export-filename="/Users/auli/Desktop/logo-ff-1.png"
   inkscape:export-xdpi="199.98801"
   inkscape:export-ydpi="199.98801"><metadata
     id="metadata8"><rdf:RDF><cc:Work
         rdf:about=""><dc:format>image/svg+xml</dc:format><dc:type
           rdf:resource="http://purl.org/dc/dcmitype/StillImage" /><dc:title></dc:title></cc:Work></rdf:RDF></metadata><defs
     id="defs6"><clipPath
       clipPathUnits="userSpaceOnUse"
       id="clipPath16"><path
         d="m 0,595.28 841.89,0 L 841.89,0 0,0 0,595.28 Z"
         id="path18"
         inkscape:connector-curvature="0" /></clipPath></defs><sodipodi:namedview
     pagecolor="#ffffff"
     bordercolor="#666666"
     borderopacity="1"
     objecttolerance="10"
     gridtolerance="10"
     guidetolerance="10"
     inkscape:pageopacity="0"
     inkscape:pageshadow="2"
     inkscape:window-width="1350"
     inkscape:window-height="972"
     id="namedview4"
     showgrid="false"
     inkscape:zoom="0.18"
     inkscape:cx="1392.3402"
     inkscape:cy="-581.29609"
     inkscape:window-x="48"
     inkscape:window-y="0"
     inkscape:window-maximized="0"
     inkscape:current-layer="g10"
     showguides="true"
     inkscape:guide-bbox="true"
     fit-margin-top="0"
     fit-margin-left="0"
     fit-margin-right="0"
     fit-margin-bottom="0" /><g
     id="g10"
     inkscape:groupmode="layer"
     inkscape:label="LOGO_OUISHARE_FEST_2015-RGB"
     transform="matrix(1.25,0,0,-1.25,9903.3665,569.75786)"><flowRoot
       transform="matrix(0.8,0,0,-0.8,0,595.28)"
       style="font-style:normal;font-weight:normal;font-size:112.5px;line-height:125%;font-family:sans-serif;letter-spacing:0px;word-spacing:0px;fill:#000000;fill-opacity:1;stroke:none;stroke-width:1px;stroke-linecap:butt;stroke-linejoin:miter;stroke-opacity:1"
       id="flowRoot4277"
       xml:space="preserve"><flowRegion
         id="flowRegion4279"><rect
           style="font-size:112.5px"
           y="425.65042"
           x="558.07501"
           height="119.81268"
           width="353.13217"
           id="rect4281" /></flowRegion><flowPara
         style="font-style:normal;font-variant:normal;font-weight:bold;font-stretch:normal;font-size:112.5px;font-family:'ouishare stencil';-inkscape-font-specification:'ouishare stencil Bold'"
         id="flowPara4283">2016</flowPara></flowRoot><text
       transform="scale(1,-1)"
       sodipodi:linespacing="125%"
       id="text4246"
       y="-559.00519"
       x="216.56047"
       style="font-style:normal;font-weight:normal;font-size:32px;line-height:125%;font-family:sans-serif;letter-spacing:0px;word-spacing:0px;fill:#000000;fill-opacity:1;stroke:none;stroke-width:1px;stroke-linecap:butt;stroke-linejoin:miter;stroke-opacity:1"
       xml:space="preserve"><tspan
         y="-559.00519"
         x="216.56047"
         id="tspan4248"
         sodipodi:role="line" /></text>
<path
       inkscape:connector-curvature="0"
       id="path4295"
       style="fill:#001e60;fill-opacity:1;fill-rule:nonzero;stroke:none"
       d="m -7902.3334,411.31799 0,9.296 c 0,9.694 7.248,14.608 14.493,14.608 7.117,0 14.234,-4.914 14.234,-14.608 l 0,-9.296 5.93,0 0,9.296 c 0,13.678 -10.147,20.585 -20.164,20.585 -10.277,0 -20.424,-6.907 -20.424,-20.585 l 0,-9.296 5.931,0 z m 28.727,-8.632 0,-11.82 c 0,-9.562 -7.248,-14.475 -14.497,-14.475 -7.115,0 -14.23,4.781 -14.23,14.475 l 0,11.82 -5.931,0 0,-11.82 c 0,-13.679 10.015,-20.452 20.161,-20.452 10.149,0 20.427,6.906 20.427,20.452 l 0,11.82 -5.93,0 z m 18.582,8.632 0,9.296 c 0,18.727 -13.837,33.6 -32.551,33.6 -18.713,0 -33.34,-14.476 -33.34,-33.6 l 0,-9.296 5.93,0 0,9.296 c 0,15.671 11.992,27.623 27.41,27.623 15.289,0 26.619,-12.218 26.619,-27.623 l 0,-9.296 5.932,0 z m -65.891,-20.186 c 0,-19.124 13.443,-33.599 32.285,-33.599 18.581,0 33.606,14.873 33.606,33.599 l 0,11.554 -5.932,0 0,-11.554 c 0,-15.405 -12.386,-27.623 -27.674,-27.623 -15.418,0 -26.355,11.952 -26.355,27.623 l 0,11.554 -5.93,0 0,-11.554 z"
       inkscape:export-xdpi="199.98801"
       inkscape:export-ydpi="199.98801" /><path
       inkscape:connector-curvature="0"
       id="path4297"
       style="fill:#001e60;fill-opacity:1;fill-rule:nonzero;stroke:none"
       d="m -7794.3685,400.82629 0,-10.889 c 0,-11.29 -8.697,-15.273 -14.1,-15.273 -1.584,0 -15.025,0.399 -15.025,15.273 l 0,10.889 -5.928,0 0,-10.889 c 0,-20.718 18.711,-21.248 20.953,-21.248 7.643,0 20.031,5.578 20.031,21.248 l 0,10.889 -5.931,0 z m -29.125,8.634 0,33.863 c 0,5.18 -3.951,9.43 -8.696,9.43 -4.876,0 -8.698,-4.25 -8.698,-9.43 l 0,-33.863 5.931,0 0,33.863 c 0,1.859 1.186,3.454 2.767,3.454 1.45,0 2.768,-1.595 2.768,-3.454 l 0,-33.863 5.928,0 z m 46.653,0 0,33.863 c 0,5.18 -3.822,9.43 -8.698,9.43 -4.744,0 -8.83,-4.25 -8.83,-9.43 l 0,-33.863 5.931,0 0,33.863 c 0,1.859 1.319,3.454 2.899,3.454 1.58,0 2.767,-1.595 2.767,-3.454 l 0,-33.863 5.931,0 z m -64.047,-19.523 c 0,-11.686 4.216,-21.116 12.388,-27.358 8.037,-6.108 16.736,-6.774 20.031,-6.774 16.736,0 31.628,13.546 31.628,34.132 l 0,10.889 -5.931,0 0,-10.889 c 0,-16.999 -12.124,-28.155 -25.697,-28.155 -2.767,0 -9.883,0.531 -16.472,5.579 -6.59,5.045 -10.016,12.879 -10.016,22.576 l 0,10.889 -5.931,0 0,-10.889 z"
       inkscape:export-xdpi="199.98801"
       inkscape:export-ydpi="199.98801" /><path
       inkscape:connector-curvature="0"
       id="path4299"
       style="fill:#001e60;fill-opacity:1;fill-rule:nonzero;stroke:none"
       d="m -7743.9906,411.31799 0,33.467 c 0,5.179 -4.216,9.429 -9.355,9.429 -5.141,0 -9.357,-4.25 -9.357,-9.429 l 0,-33.467 5.93,0 0,33.467 c 0,1.858 1.582,3.452 3.427,3.452 1.843,0 3.426,-1.594 3.426,-3.452 l 0,-33.467 5.929,0 z m -18.712,-8.632 0,-35.725 c 0,-5.179 4.216,-9.428 9.357,-9.428 5.139,0 9.355,4.249 9.355,9.428 l 0,35.725 -5.929,0 0,-35.725 c 0,-1.859 -1.583,-3.452 -3.426,-3.452 -1.845,0 -3.427,1.593 -3.427,3.452 l 0,35.725 -5.93,0 z"
       inkscape:export-xdpi="199.98801"
       inkscape:export-ydpi="199.98801" /><path
       inkscape:connector-curvature="0"
       id="path4301"
       style="fill:#001e60;fill-opacity:1;fill-rule:nonzero;stroke:none"
       d="m -7662.3802,383.82729 c 0,13.545 -9.225,23.772 -24.645,29.749 l -6.585,-17.663 c 7.378,-2.921 12.649,-6.772 12.649,-12.351 0,-5.712 -6.064,-8.898 -13.44,-8.898 -17,0 -19.373,8.898 -26.094,8.898 -4.875,0 -9.357,-4.118 -9.357,-9.429 0,-12.218 22.007,-18.195 35.451,-18.195 17.658,0 32.021,11.023 32.021,27.358 l 0,0.531 z m -56.533,23.904 c 4.217,-3.85 9.883,-6.772 17.131,-9.029 l 6.588,17.529 c -13.704,3.985 -13.967,9.43 -13.967,11.687 0,6.242 6.851,9.03 13.179,9.03 4.611,0 10.936,-2.124 16.998,-5.709 1.582,-0.931 3.163,-1.328 4.745,-1.328 4.876,0 9.356,3.85 9.356,9.43 0,3.186 -1.581,6.241 -4.48,7.968 -6.458,3.85 -16.341,8.497 -26.619,8.497 -18.055,0 -31.892,-11.952 -31.892,-27.888 0,-7.836 3.031,-14.875 8.961,-20.187"
       inkscape:export-xdpi="199.98801"
       inkscape:export-ydpi="199.98801" /><path
       inkscape:connector-curvature="0"
       id="path4303"
       style="fill:#001e60;fill-opacity:1;fill-rule:nonzero;stroke:none"
       d="m -7587.6224,454.21399 c -5.14,0 -9.355,-4.25 -9.355,-9.429 l 0,-29.748 -11.995,0 0,-18.859 11.995,0 0,-29.217 c 0,-5.179 4.215,-9.428 9.355,-9.428 5.139,0 9.357,4.249 9.357,9.428 l 0,77.824 c 0,5.179 -4.218,9.429 -9.357,9.429 m -29.916,-39.177 -11.992,0 0,29.748 c 0,5.179 -4.215,9.429 -9.356,9.429 -5.139,0 -9.355,-4.25 -9.355,-9.429 l 0,-77.824 c 0,-5.179 4.216,-9.428 9.355,-9.428 5.141,0 9.356,4.249 9.356,9.428 l 0,29.217 11.992,0 0,18.859 z"
       inkscape:export-xdpi="199.98801"
       inkscape:export-ydpi="199.98801" /><path
       inkscape:connector-curvature="0"
       id="path4305"
       style="fill:#001e60;fill-opacity:1;fill-rule:nonzero;stroke:none"
       d="m -7486.641,370.41419 -29.649,77.69 c -1.45,3.719 -4.744,6.11 -8.698,6.11 -3.822,0 -7.381,-2.391 -8.698,-5.977 l -5.403,-14.341 c 4.218,-2.126 11.992,-8.9 16.474,-20.72 l 0.659,-1.594 c 2.371,-5.444 4.085,-11.951 4.875,-13.81 l 1.712,-4.382 -9.223,0 -7.247,-18.858 23.588,0 4.216,-10.89 c 1.45,-3.853 5.007,-6.109 8.698,-6.109 5.535,0 9.357,4.515 9.357,9.428 0,1.197 -0.266,2.258 -0.661,3.453 m -42.829,36.522 c -4.611,12.482 -9.356,16.732 -12.781,18.858 l -21.217,-55.38 c -0.395,-1.195 -0.658,-2.256 -0.658,-3.453 0,-4.913 3.82,-9.428 9.355,-9.428 3.822,0 7.248,2.256 8.697,5.976 l 16.604,43.427 z"
       inkscape:export-xdpi="199.98801"
       inkscape:export-ydpi="199.98801" /><path
       inkscape:connector-curvature="0"
       id="path4307"
       style="fill:#001e60;fill-opacity:1;fill-rule:nonzero;stroke:none"
       d="m -7330.2709,374.79749 -32.286,0 0,-18.859 32.286,0 c 5.139,0 9.355,4.252 9.355,9.429 0,5.18 -4.216,9.43 -9.355,9.43 m -32.286,58.964 32.286,0 c 5.139,0 9.355,4.249 9.355,9.43 0,5.179 -4.216,9.431 -9.355,9.431 l -32.286,0 0,-18.861 z m -8.568,-38.779 31.76,0 c 5.272,0 9.489,4.25 9.489,9.43 0,5.312 -4.217,9.562 -9.489,9.562 l -31.76,0 0,38.648 -9.355,0 c -5.139,0 -9.357,-4.252 -9.357,-9.431 l 0,-77.824 c 0,-4.78 4.613,-9.429 9.357,-9.429 l 9.355,0 0,39.044 z"
       inkscape:export-xdpi="199.98801"
       inkscape:export-ydpi="199.98801" /><path
       inkscape:connector-curvature="0"
       id="path4309"
       style="fill:#001e60;fill-opacity:1;fill-rule:nonzero;stroke:none"
       d="m -7411.3549,404.01519 c 4.877,5.179 7.381,13.146 7.381,20.583 0,11.954 -6.194,21.779 -18.055,26.428 -4.084,1.596 -8.828,1.596 -13.971,1.596 l -9.617,0 0,-19.125 8.959,0 c 7.119,0 14.629,-1.462 14.629,-9.961 0,-8.499 -7.51,-10.093 -14.629,-10.093 l -8.959,0 0,-19.123 6.985,0 c 11.464,0 19.107,1.194 27.277,9.695 m -11.992,-42.498 c 1.582,-3.454 4.613,-5.446 8.17,-5.446 5.535,0 8.83,4.783 8.83,9.43 l 0,0.929 c 0,1.062 -0.263,2.126 -0.791,3.187 l -9.225,20.453 c -5.27,-2.656 -11.201,-4.118 -17.922,-4.384 l 10.938,-24.169 z m -48.496,81.54 0,-77.556 c 0,-5.311 3.953,-9.563 8.961,-9.563 5.009,0 9.093,4.252 9.093,9.563 l 0,87.121 -9.093,0 c -5.008,0 -8.961,-4.252 -8.961,-9.565"
       inkscape:export-xdpi="199.98801"
       inkscape:export-ydpi="199.98801" /><path
       d="m -7320.9154,135.80548 -600,0 0,14 600,0 0,-14 z"
       style="fill:#001e60;fill-opacity:1;fill-rule:nonzero;stroke:none"
       id="path4311"
       inkscape:connector-curvature="0"
       inkscape:export-xdpi="199.98801"
       inkscape:export-ydpi="199.98801" /><path
       d="m -7320.9154,307.40549 -600,0 0,14 600,0 0,-14 z"
       style="fill:#001e60;fill-opacity:1;fill-rule:nonzero;stroke:none"
       id="path4313"
       inkscape:connector-curvature="0"
       inkscape:export-xdpi="199.98801"
       inkscape:export-ydpi="199.98801" /><g
       transform="matrix(0.8,0,0,-0.8,-8040.1841,317.27674)"
       style="font-style:normal;font-weight:normal;font-size:125px;line-height:125%;font-family:sans-serif;letter-spacing:0.27000001px;word-spacing:0px;fill:#001e60;fill-opacity:1;stroke:none;stroke-width:1px;stroke-linecap:butt;stroke-linejoin:miter;stroke-opacity:1"
       id="flowRoot4315"><path
         d="m 177.91367,300.32809 36.75,0 c 5.85,0 10.65,-4.8 10.65,-10.65 0,-5.85 -4.8,-10.65 -10.65,-10.65 l -36.75,0 0,21.3 z m -9.75,77.25 c 0,6.9 -5.1,10.65 -10.65,10.65 -5.4,0 -10.65,-5.1 -10.65,-10.65 l 0,-87.9 c 0,-5.85 4.8,-10.65 10.65,-10.65 l 10.65,0 0,43.65 36.15,0 c 6,0 10.8,4.8 10.8,10.8 0,5.85 -4.8,10.65 -10.8,10.65 l -36.15,0 0,33.45 z"
         style="font-style:normal;font-variant:normal;font-weight:bold;font-stretch:normal;font-size:150px;line-height:125%;font-family:'ouishare stencil';-inkscape-font-specification:'ouishare stencil Bold';letter-spacing:10.64999962px;fill:#001e60;fill-opacity:1"
         id="path4942" /><path
         d="m 300.06992,337.22809 0,13.35 c 0,10.8 -8.25,16.35 -16.5,16.35 -8.1,0 -16.2,-5.4 -16.2,-16.35 l 0,-13.35 -21.15,0 0,13.05 c 0,21.6 15.3,37.95 36.75,37.95 21.15,0 38.25,-16.8 38.25,-37.95 l 0,-13.05 -21.15,0 z m -32.7,-9.75 0,-10.5 c 0,-10.95 8.25,-16.5 16.5,-16.5 8.1,0 16.2,5.55 16.2,16.5 l 0,10.5 21.15,0 0,-10.5 c 0,-21.15 -15.75,-37.95 -37.05,-37.95 -21.3,0 -37.95,16.35 -37.95,37.95 l 0,10.5 21.15,0 z"
         style="font-style:normal;font-variant:normal;font-weight:bold;font-stretch:normal;font-size:150px;line-height:125%;font-family:'ouishare stencil';-inkscape-font-specification:'ouishare stencil Bold';letter-spacing:10.64999962px;fill:#001e60;fill-opacity:1"
         id="path4944" /><path
         d="m 351.71211,289.82809 0,87.6 c 0,6 4.5,10.8 10.2,10.8 5.7,0 10.35,-4.8 10.35,-10.8 l 0,-98.4 -10.35,0 c -5.7,0 -10.2,4.8 -10.2,10.8 z m 55.2,92.1 c 1.8,3.9 5.25,6.15 9.3,6.15 6.3,0 10.05,-5.4 10.05,-10.65 l 0,-1.05 c 0,-1.2 -0.3,-2.4 -0.9,-3.6 l -10.5,-23.1 c -6,3 -12.75,4.65 -20.4,4.95 l 12.45,27.3 z m 13.65,-48 c 5.55,-5.85 8.4,-14.85 8.4,-23.25 0,-13.5 -7.05,-24.6 -20.55,-29.85 -4.65,-1.8 -10.05,-1.8 -15.9,-1.8 l -10.95,0 0,21.6 10.2,0 c 8.1,0 16.65,1.65 16.65,11.25 0,9.6 -8.55,11.4 -16.65,11.4 l -10.2,0 0,21.6 7.95,0 c 13.05,0 21.75,-1.35 31.05,-10.95 z"
         style="font-style:normal;font-variant:normal;font-weight:bold;font-stretch:normal;font-size:150px;line-height:125%;font-family:'ouishare stencil';-inkscape-font-specification:'ouishare stencil Bold';letter-spacing:10.64999962px;fill:#001e60;fill-opacity:1"
         id="path4946" /><path
         d="m 528.95587,321.47809 c -1.65,-4.2 -5.7,-7.05 -10.05,-7.05 -10.2,0 -12.45,12.75 -19.8,31.35 -3.6,8.85 -7.65,15.9 -16.65,19.5 l 6.15,16.2 c 1.5,4.05 5.55,6.75 10.2,6.75 4.5,0 8.55,-3 9.9,-7.35 3.45,-8.85 6.75,-17.7 10.2,-26.7 3.3,9 6.9,17.85 10.2,26.7 1.5,4.35 5.25,7.35 10.2,7.35 4.35,0 8.25,-2.7 9.9,-6.75 l 6.3,-16.2 c -7.5,-3 -13.2,-8.85 -15.9,-16.35 l -1.05,-2.85 c -3,-8.25 -8.1,-20.4 -9.6,-24.6 z m 34.35,-35.7 c -6.3,16.35 -12.45,32.55 -18.75,48.75 0.45,2.1 1.5,4.2 2.4,6.3 l 1.2,3.15 c 2.25,5.85 5.4,9.75 10.8,12.15 l 24.3,-62.55 c 0.45,-1.2 0.75,-2.55 0.75,-3.9 0,-5.4 -4.35,-10.65 -10.8,-10.65 -4.35,0 -8.25,2.55 -9.9,6.75 z m -88.8,0 c -1.65,-4.2 -5.55,-6.75 -9.9,-6.75 -6.3,0 -10.65,5.25 -10.65,10.65 0,1.35 0.3,2.55 0.75,3.9 l 24.15,62.55 c 6.45,-2.7 9.9,-8.25 12,-15.3 l 2.55,-6.3 c -6.3,-16.2 -12.6,-32.4 -18.9,-48.75 z"
         style="font-style:normal;font-variant:normal;font-weight:bold;font-stretch:normal;font-size:150px;line-height:125%;font-family:'ouishare stencil';-inkscape-font-specification:'ouishare stencil Bold';letter-spacing:10.64999962px;fill:#001e60;fill-opacity:1"
         id="path4948" /><path
         d="m 633.65587,332.27809 c -5.25,-14.1 -10.65,-18.9 -14.55,-21.3 l -24.15,62.55 c -0.45,1.35 -0.75,2.55 -0.75,3.9 0,5.55 4.35,10.65 10.65,10.65 4.35,0 8.25,-2.55 9.9,-6.75 l 18.9,-49.05 z m 48.75,41.25 -33.75,-87.75 c -1.65,-4.2 -5.4,-6.9 -9.9,-6.9 -4.35,0 -8.4,2.7 -9.9,6.75 l -6.15,16.2 c 4.8,2.4 13.65,10.05 18.75,23.4 l 0.75,1.8 c 2.7,6.15 4.65,13.5 5.55,15.6 l 1.95,4.95 -10.5,0 -8.25,21.3 26.85,0 4.8,12.3 c 1.65,4.35 5.7,6.9 9.9,6.9 6.3,0 10.65,-5.1 10.65,-10.65 0,-1.35 -0.3,-2.55 -0.75,-3.9 z"
         style="font-style:normal;font-variant:normal;font-weight:bold;font-stretch:normal;font-size:150px;line-height:125%;font-family:'ouishare stencil';-inkscape-font-specification:'ouishare stencil Bold';letter-spacing:10.64999962px;fill:#001e60;fill-opacity:1"
         id="path4950" /><path
         d="m 710.0293,289.82809 0,87.6 c 0,6 4.5,10.8 10.2,10.8 5.7,0 10.35,-4.8 10.35,-10.8 l 0,-98.4 -10.35,0 c -5.7,0 -10.2,4.8 -10.2,10.8 z m 55.2,92.1 c 1.8,3.9 5.25,6.15 9.3,6.15 6.3,0 10.05,-5.4 10.05,-10.65 l 0,-1.05 c 0,-1.2 -0.3,-2.4 -0.9,-3.6 l -10.5,-23.1 c -6,3 -12.75,4.65 -20.4,4.95 l 12.45,27.3 z m 13.65,-48 c 5.55,-5.85 8.4,-14.85 8.4,-23.25 0,-13.5 -7.05,-24.6 -20.55,-29.85 -4.65,-1.8 -10.05,-1.8 -15.9,-1.8 l -10.95,0 0,21.6 10.2,0 c 8.1,0 16.65,1.65 16.65,11.25 0,9.6 -8.55,11.4 -16.65,11.4 l -10.2,0 0,21.6 7.95,0 c 13.05,0 21.75,-1.35 31.05,-10.95 z"
         style="font-style:normal;font-variant:normal;font-weight:bold;font-stretch:normal;font-size:150px;line-height:125%;font-family:'ouishare stencil';-inkscape-font-specification:'ouishare stencil Bold';letter-spacing:10.64999962px;fill:#001e60;fill-opacity:1"
         id="path4952" /><path
         d="m 838.22307,388.22809 0,-109.2 -10.5,0 c -6.3,0 -11.1,4.8 -11.1,10.8 l 0,87.6 c 0,6 4.8,10.8 10.8,10.8 l 10.8,0 z m 59.25,-31.95 c 0,17.55 -17.55,31.95 -32.4,31.95 l -17.25,0 0,-21.3 c 0.3,-0.15 0.75,-0.15 1.35,-0.15 1.8,0 4.95,0.3 8.4,0.3 8.25,0 18.6,-1.5 18.6,-11.25 l 0,-45.3 c 0,-6.45 -4.65,-10.05 -10.8,-10.05 l -17.55,0 0,-21.45 17.4,0 c 19.05,0 32.25,14.4 32.25,31.95 l 0,45.3 z"
         style="font-style:normal;font-variant:normal;font-weight:bold;font-stretch:normal;font-size:150px;line-height:125%;font-family:'ouishare stencil';-inkscape-font-specification:'ouishare stencil Bold';letter-spacing:10.64999962px;fill:#001e60;fill-opacity:1"
         id="path4954" /></g><g
       id="g4323"
       style="font-style:normal;font-weight:normal;font-size:32px;line-height:125%;font-family:sans-serif;letter-spacing:0px;word-spacing:0px;fill:#001e60;fill-opacity:1;stroke:none;stroke-width:1px;stroke-linecap:butt;stroke-linejoin:miter;stroke-opacity:1"
       transform="matrix(1.8761257,0,0,-1.8761257,-7915.0346,-852.68874)"
       inkscape:export-xdpi="199.98801"
       inkscape:export-ydpi="199.98801"><path
         inkscape:connector-curvature="0"
         id="path4325"
         style="font-size:72px;fill:#001e60;fill-opacity:1"
         d="m 205.18942,-600.90204 51.01172,25.45313 -51.01172,25.45312 0,-50.90625 z" /></g><g
       transform="matrix(1.8761257,0,0,-1.8761257,-7802.3864,-852.68874)"
       style="font-style:normal;font-weight:normal;font-size:32px;line-height:125%;font-family:sans-serif;letter-spacing:0px;word-spacing:0px;fill:#001e60;fill-opacity:1;stroke:none;stroke-width:1px;stroke-linecap:butt;stroke-linejoin:miter;stroke-opacity:1"
       id="g4327"
       inkscape:export-xdpi="199.98801"
       inkscape:export-ydpi="199.98801"><path
         inkscape:connector-curvature="0"
         d="m 205.18942,-600.90204 51.01172,25.45313 -51.01172,25.45312 0,-50.90625 z"
         style="font-size:72px;fill:#001e60;fill-opacity:1"
         id="path4329" /></g><g
       transform="scale(1,-1)"
       style="font-style:normal;font-weight:normal;font-size:32px;line-height:125%;font-family:sans-serif;letter-spacing:0px;word-spacing:0px;fill:#001e60;fill-opacity:1;stroke:none;stroke-width:1px;stroke-linecap:butt;stroke-linejoin:miter;stroke-opacity:1"
       id="text4331"><path
         d="m -7894.4808,-257.348 32.34,0 c 5.148,0 9.372,-4.224 9.372,-9.372 0,-5.148 -4.224,-9.372 -9.372,-9.372 l -32.34,0 0,18.744 z m -8.58,67.98 c 0,6.072 -4.488,9.372 -9.372,9.372 -4.752,0 -9.372,-4.488 -9.372,-9.372 l 0,-77.352 c 0,-5.148 4.224,-9.372 9.372,-9.372 l 9.372,0 0,38.412 31.812,0 c 5.28,0 9.504,4.224 9.504,9.504 0,5.148 -4.224,9.372 -9.504,9.372 l -31.812,0 0,29.436 z"
         style="font-style:normal;font-variant:normal;font-weight:bold;font-stretch:normal;font-size:132px;font-family:'ouishare stencil';-inkscape-font-specification:'ouishare stencil Bold';letter-spacing:15.68000031px;fill:#001e60;fill-opacity:1"
         id="path4957" /><path
         d="m -7806.8113,-218.804 31.812,0 c 5.28,0 9.504,-4.224 9.504,-9.372 0,-5.28 -4.224,-9.504 -9.504,-9.504 l -31.812,0 0,-38.412 -9.372,0 c -5.148,0 -9.372,4.224 -9.372,9.372 l 0,77.352 c 0,4.752 4.62,9.372 9.372,9.372 l 9.372,0 0,-38.808 z m 8.58,-38.544 32.34,0 c 5.148,0 9.372,-4.224 9.372,-9.372 0,-5.148 -4.224,-9.372 -9.372,-9.372 l -32.34,0 0,18.744 z m 32.34,58.608 -32.34,0 0,18.744 32.34,0 c 5.148,0 9.372,-4.224 9.372,-9.372 0,-5.148 -4.224,-9.372 -9.372,-9.372 z"
         style="font-style:normal;font-variant:normal;font-weight:bold;font-stretch:normal;font-size:132px;font-family:'ouishare stencil';-inkscape-font-specification:'ouishare stencil Bold';letter-spacing:15.68000031px;fill:#001e60;fill-opacity:1"
         id="path4959" /><path
         d="m -7713.9154,-230.552 c 4.224,3.828 9.9,6.732 17.16,8.976 l 6.6,-17.424 c -13.728,-3.96 -13.992,-9.372 -13.992,-11.616 0,-6.204 6.864,-8.976 13.2,-8.976 4.62,0 10.956,2.112 17.028,5.676 1.584,0.924 3.168,1.32 4.752,1.32 4.884,0 9.372,-3.828 9.372,-9.372 0,-3.168 -1.584,-6.204 -4.488,-7.92 -6.468,-3.828 -16.368,-8.448 -26.664,-8.448 -18.084,0 -31.944,11.88 -31.944,27.72 0,7.788 3.036,14.784 8.976,20.064 z m 56.628,23.76 c 0,-13.464 -9.24,-23.628 -24.684,-29.568 l -6.6,17.556 c 7.392,2.904 12.672,6.732 12.672,12.276 0,5.676 -6.072,8.844 -13.464,8.844 -17.028,0 -19.404,-8.844 -26.136,-8.844 -4.884,0 -9.372,4.092 -9.372,9.372 0,12.144 22.044,18.084 35.508,18.084 17.688,0 32.076,-10.956 32.076,-27.192 l 0,-0.528 z"
         style="font-style:normal;font-variant:normal;font-weight:bold;font-stretch:normal;font-size:132px;font-family:'ouishare stencil';-inkscape-font-specification:'ouishare stencil Bold';letter-spacing:15.68000031px;fill:#001e60;fill-opacity:1"
         id="path4961" /><path
         d="m -7569.9004,-275.96 -51.348,0 c -5.148,0 -9.372,4.224 -9.372,9.372 0,5.148 4.224,9.372 9.372,9.372 l 51.348,0 c 5.148,0 9.372,-4.224 9.372,-9.372 0,-5.148 -4.224,-9.372 -9.372,-9.372 z m -35.112,27.324 0,59.4 c 0,5.148 4.224,9.372 9.372,9.372 5.148,0 9.372,-4.224 9.372,-9.372 l 0,-59.4 -18.744,0 z"
         style="font-style:normal;font-variant:normal;font-weight:bold;font-stretch:normal;font-size:132px;font-family:'ouishare stencil';-inkscape-font-specification:'ouishare stencil Bold';letter-spacing:15.68000031px;fill:#001e60;fill-opacity:1"
         id="path4963" /></g></g></svg>