<?xml version="1.0" encoding="utf-8"?>
<!-- Generator: Adobe Illustrator 16.0.0, SVG Export Plug-In . SVG Version: 6.00 Build 0)  -->
<!DOCTYPE svg PUBLIC "-//W3C//DTD SVG 1.1//EN" "http://www.w3.org/Graphics/SVG/1.1/DTD/svg11.dtd">
<svg version="1.1" id="Calque_1" xmlns="http://www.w3.org/2000/svg" xmlns:xlink="http://www.w3.org/1999/xlink" x="0px" y="0px"
	 width="841.89px" height="595.28px" viewBox="0 0 841.89 595.28" enable-background="new 0 0 841.89 595.28" xml:space="preserve">
<path d="M239.032,375.514c3.601,3.262,8.438,5.736,14.627,7.653l5.625-14.855c-11.701-3.375-11.927-7.989-11.927-9.898
	c0-5.292,5.851-7.654,11.252-7.654c3.938,0,9.338,1.802,14.514,4.837c1.351,0.787,2.702,1.127,4.052,1.127
	c4.163,0,7.988-3.264,7.988-7.989c0-2.702-1.349-5.291-3.825-6.752c-5.513-3.263-13.953-7.201-22.729-7.201
	c-15.414,0-27.229,10.128-27.229,23.631C231.38,365.049,233.968,371.011,239.032,375.514L239.032,375.514z M287.301,395.765
	c0-11.474-7.876-20.141-21.041-25.201l-5.626,14.964c6.302,2.477,10.801,5.741,10.801,10.462c0,4.838-5.175,7.541-11.477,7.541
	c-14.514,0-16.539-7.541-22.278-7.541c-4.164,0-7.988,3.491-7.988,7.99c0,10.352,18.79,15.414,30.266,15.414
	c15.078,0,27.342-9.339,27.342-23.176V395.765z"/>
<path d="M165.098,384.968h27.118c4.5,0,8.102-3.606,8.102-7.99c0-4.505-3.602-8.1-8.102-8.1h-27.118v-32.747h-7.989
	c-4.387,0-7.988,3.604-7.988,7.99v65.936c0,4.049,3.938,7.988,7.988,7.988h7.989V384.968z M172.413,352.11h27.565
	c4.389,0,7.99-3.601,7.99-7.989c0-4.387-3.601-7.99-7.99-7.99h-27.565V352.11z M199.978,402.067h-27.565v15.978h27.565
	c4.389,0,7.99-3.601,7.99-7.988C207.968,405.667,204.367,402.067,199.978,402.067z"/>
<path d="M91.839,352.11h27.569c4.387,0,7.988-3.601,7.988-7.989c0-4.387-3.601-7.989-7.988-7.989H91.839V352.11z M84.525,410.058
	c0,5.175-3.825,7.988-7.99,7.988c-4.05,0-7.988-3.827-7.988-7.988v-65.936c0-4.387,3.601-7.989,7.988-7.989h7.99v32.745h27.117
	c4.5,0,8.102,3.596,8.102,8.101c0,4.384-3.602,7.99-8.102,7.99H84.525V410.058z"/>
<path d="M360.784,336.132h-43.769c-4.389,0-7.988,3.603-7.988,7.989c0,4.388,3.6,7.989,7.988,7.989h43.769
	c4.389,0,7.989-3.601,7.989-7.989C368.773,339.735,365.173,336.132,360.784,336.132L360.784,336.132z M330.854,359.424v50.634
	c0,4.387,3.601,7.988,7.989,7.988c4.387,0,7.987-3.601,7.987-7.988v-50.634H330.854z"/>
<path d="M459.996,347.047c-1.125,1.576-1.464,3.712-1.464,4.727c0,4.387,3.15,7.872,7.09,7.872c5.851,0,7.2-8.211,14.626-8.211
	c6.413,0,10.241,5.404,10.241,11.141c0,4.05-1.801,6.636-4.163,9.676c-0.9,1.122-24.529,29.479-26.555,32.068
	c-0.9,1.123-2.139,3.037-2.139,5.738c0,3.938,2.927,7.988,7.313,7.988h1.575c10.354-12.039,22.057-24.303,32.633-38.143
	c3.262-4.278,6.188-9.679,6.188-17.327c0-14.292-9.341-26.443-24.98-26.443C469.446,336.132,463.259,342.546,459.996,347.047
	L459.996,347.047z M499.715,418.045c4.388,0,6.977-4.05,6.977-7.651c0-3.712-2.589-7.65-6.977-7.65h-13.389
	c-4.503,5.062-8.89,10.238-13.278,15.301H499.715z"/>
<path d="M570.021,402.744c-5.064-1.125-7.541-6.078-7.541-11.475v-28.244c0-4.388,2.477-10.126,7.541-11.59v-15.302
	c-16.766,1.463-22.168,17.216-22.168,26.778v28.472c0,10.351,5.402,25.314,22.168,26.664V402.744z M574.971,418.045
	c16.767-1.35,22.166-16.313,22.166-26.664V362.91c0-9.562-5.399-25.315-22.166-26.778v15.302c5.066,1.464,7.54,7.202,7.54,11.59
	v28.244c0,5.397-2.474,10.351-7.54,11.475V418.045z"/>
<path d="M654.953,338.833l-14.178,14.288c-1.913,1.915-2.476,3.939-2.476,5.966c0,4.61,3.263,7.761,7.202,7.761
	c5.064,0,6.524-5.513,7.313-5.285v48.269c0,4.951,3.602,8.214,7.429,8.214c3.823,0,7.535-3.263,7.535-8.214v-65.599
	c0-4.613-3.599-8.101-7.424-8.101C658.104,336.132,656.416,337.371,654.953,338.833z"/>
<path d="M749.557,391.269v-4.166c0-4.724-3.48-8.105-7.313-8.105c-3.824,0-7.312,3.381-7.312,8.105v4.39h-8.999
	c0,0,13.728-38.259,15.749-43.658c0.454-1.35,0.675-2.251,0.675-3.825c0-4.614-3.374-7.877-7.313-7.877
	c-3.037,0-5.736,2.024-6.747,5.064l-18.344,52.434c-0.9,1.912-1.012,3.263-1.012,4.725c0,4.5,3.039,8.103,7.425,8.103h18.566v3.6
	c0,4.951,3.716,7.988,7.312,7.988c4.505,0,7.313-4.05,7.313-7.988v-3.6h1.468c3.6,0,6.978-2.927,6.978-7.542
	c0-4.499-3.378-7.647-6.978-7.647H749.557z"/>
<path d="M67.59,187.589c0,21.866,15.489,38.417,37.203,38.417c21.411,0,38.722-17.007,38.722-38.417v-13.211h-6.834v13.211
	c0,17.613-14.273,31.584-31.888,31.584c-17.767,0-30.37-13.667-30.37-31.584v-13.211H67.59V187.589z M143.515,164.508v-10.629
	c0-21.411-15.944-38.418-37.507-38.418c-21.563,0-38.418,16.552-38.418,38.418v10.629h6.833v-10.629
	c0-17.918,13.818-31.584,31.585-31.584c17.615,0,30.673,13.97,30.673,31.584v10.629H143.515z M122.104,174.378v13.515
	c0,10.932-8.351,16.551-16.703,16.551c-8.2,0-16.399-5.467-16.399-16.551v-13.515h-6.833v13.515c0,15.64,11.54,23.384,23.232,23.384
	s23.537-7.896,23.537-23.384v-13.515H122.104z M89.001,164.508v-10.629c0-11.085,8.352-16.703,16.703-16.703
	c8.2,0,16.4,5.618,16.4,16.703v10.629h6.833v-10.629c0-15.64-11.693-23.537-23.233-23.537c-11.843,0-23.536,7.896-23.536,23.537
	v10.629H89.001z"/>
<path d="M159.806,188.955c0,13.363,4.858,24.145,14.273,31.281c9.264,6.985,19.286,7.744,23.082,7.744
	c19.286,0,36.444-15.488,36.444-39.025v-12.452h-6.833v12.452c0,19.437-13.971,32.193-29.611,32.193
	c-3.188,0-11.388-0.608-18.98-6.378c-7.593-5.77-11.541-14.729-11.541-25.814v-12.452h-6.833V188.955z M233.604,166.633v-38.721
	c0-5.922-4.403-10.781-10.022-10.781c-5.466,0-10.173,4.858-10.173,10.781v38.721h6.833v-38.721c0-2.126,1.518-3.948,3.34-3.948
	c1.822,0,3.189,1.822,3.189,3.948v38.721H233.604z M179.849,166.633v-38.721c0-5.922-4.555-10.781-10.021-10.781
	c-5.619,0-10.022,4.858-10.022,10.781v38.721h6.833v-38.721c0-2.126,1.367-3.948,3.189-3.948c1.67,0,3.189,1.822,3.189,3.948v38.721
	H179.849z M213.409,176.503v12.452c0,12.907-10.022,17.462-16.249,17.462c-1.822,0-17.311-0.455-17.311-17.462v-12.452h-6.833
	v12.452c0,23.689,21.562,24.296,24.144,24.296c8.807,0,23.082-6.378,23.082-24.296v-12.452H213.409z"/>
<path d="M249.896,174.378v40.848c0,5.922,4.859,10.781,10.782,10.781c5.921,0,10.781-4.858,10.781-10.781v-40.848h-6.833v40.848
	c0,2.126-1.823,3.948-3.948,3.948c-2.126,0-3.949-1.822-3.949-3.948v-40.848H249.896z M271.458,164.508v-38.266
	c0-5.922-4.859-10.782-10.781-10.782c-5.923,0-10.782,4.859-10.782,10.782v38.266h6.833v-38.266c0-2.125,1.822-3.948,3.949-3.948
	c2.125,0,3.948,1.822,3.948,3.948v38.266H271.458z"/>
<path d="M300.354,168.608c4.858,4.404,11.389,7.744,19.74,10.325l7.593-20.043c-15.793-4.556-16.096-10.781-16.096-13.363
	c0-7.136,7.896-10.325,15.185-10.325c5.313,0,12.603,2.43,19.588,6.529c1.822,1.063,3.645,1.519,5.466,1.519
	c5.619,0,10.782-4.403,10.782-10.782c0-3.644-1.822-7.137-5.163-9.111c-7.44-4.404-18.829-9.718-30.673-9.718
	c-20.804,0-36.748,13.667-36.748,31.888C290.027,154.486,293.52,162.534,300.354,168.608L300.354,168.608z M365.497,195.941
	c0-15.489-10.631-27.182-28.397-34.015l-7.591,20.196c8.504,3.34,14.576,7.744,14.576,14.122c0,6.53-6.985,10.173-15.487,10.173
	c-19.589,0-22.322-10.173-30.066-10.173c-5.618,0-10.781,4.708-10.781,10.782c0,13.97,25.357,20.803,40.848,20.803
	c20.348,0,36.899-12.603,36.899-31.281V195.941z"/>
<path d="M417.167,160.256H403.35v-34.014c0-5.922-4.859-10.782-10.781-10.782s-10.78,4.859-10.78,10.782v88.984
	c0,5.922,4.858,10.781,10.78,10.781s10.781-4.858,10.781-10.781v-33.407h13.817V160.256z M451.638,115.46
	c-5.922,0-10.781,4.859-10.781,10.782v34.014h-13.818v21.563h13.818v33.407c0,5.922,4.859,10.781,10.781,10.781
	s10.782-4.858,10.782-10.781v-88.984C462.42,120.319,457.56,115.46,451.638,115.46z"/>
<path d="M518.646,169.519c-5.314-14.273-10.78-19.133-14.728-21.563l-24.448,63.321c-0.456,1.367-0.759,2.582-0.759,3.948
	c0,5.618,4.403,10.781,10.78,10.781c4.403,0,8.353-2.581,10.022-6.833L518.646,169.519z M567.998,211.277l-34.165-88.832
	c-1.671-4.251-5.466-6.985-10.022-6.985c-4.404,0-8.504,2.734-10.022,6.834l-6.225,16.399c4.858,2.43,13.817,10.174,18.981,23.689
	l0.758,1.822c2.733,6.226,4.709,13.666,5.619,15.792l1.975,5.011h-10.63l-8.353,21.563h27.182l4.859,12.451
	c1.67,4.404,5.77,6.985,10.022,6.985c6.378,0,10.781-5.163,10.781-10.781C568.759,213.859,568.453,212.644,567.998,211.277z"/>
<path d="M701.105,183.185h36.597c6.074,0,10.933-4.859,10.933-10.782c0-6.074-4.858-10.933-10.933-10.933h-36.597v-44.188h-10.78
	c-5.922,0-10.781,4.859-10.781,10.782v88.983c0,5.467,5.314,10.781,10.781,10.781h10.78V183.185z M710.977,138.846h37.203
	c5.922,0,10.78-4.86,10.78-10.782c0-5.922-4.858-10.782-10.78-10.782h-37.203V138.846z M748.18,206.267h-37.203v21.562h37.203
	c5.922,0,10.78-4.859,10.78-10.781C758.96,211.125,754.102,206.267,748.18,206.267z"/>
<path d="M585.05,128.216v88.679c0,6.074,4.556,10.934,10.326,10.934c5.77,0,10.477-4.859,10.477-10.934v-99.613h-10.477
	C589.605,117.282,585.05,122.142,585.05,128.216L585.05,128.216z M640.93,221.451c1.823,3.948,5.315,6.226,9.415,6.226
	c6.378,0,10.174-5.467,10.174-10.782v-1.063c0-1.214-0.302-2.43-0.91-3.644l-10.63-23.385c-6.074,3.037-12.907,4.708-20.65,5.011
	L640.93,221.451z M654.75,172.859c5.618-5.921,8.503-15.033,8.503-23.536c0-13.667-7.138-24.904-20.804-30.219
	c-4.707-1.822-10.174-1.822-16.098-1.822h-11.083v21.867h10.325c8.201,0,16.855,1.67,16.855,11.389
	c0,9.718-8.654,11.54-16.855,11.54h-10.325v21.867h8.049C636.526,183.945,645.333,182.578,654.75,172.859z"/>
<rect x="68" y="466" width="690" height="15"/>
<rect x="68" y="275" width="690" height="16"/>
</svg>
