<?xml version="1.0" encoding="utf-8"?>
<!-- Generator: Adobe Illustrator 16.0.0, SVG Export Plug-In . SVG Version: 6.00 Build 0)  -->
<!DOCTYPE svg PUBLIC "-//W3C//DTD SVG 1.1//EN" "http://www.w3.org/Graphics/SVG/1.1/DTD/svg11.dtd">
<svg version="1.1" id="Calque_1" xmlns="http://www.w3.org/2000/svg" xmlns:xlink="http://www.w3.org/1999/xlink" x="0px" y="0px"
	 width="283.47px" height="283.471px" viewBox="0 0 283.47 283.471" enable-background="new 0 0 283.47 283.471"
	 xml:space="preserve">
<rect fill="#57C1F0" width="283.471" height="283.471"/>
<path fill="#46ADE1" d="M100.351,183.12c0.26,0.03,0.52,0.061,0.79,0.09c-1.08,0.78-2.12,1.54-3.141,2.271L100.351,183.12z"/>
<path fill="#FDFDFE" d="M220.47,79.79c7.15-5.28,12.141-12.13,15.68-20.09c-0.699-3.02-2.18-0.53-2.869-0.19
	c-5.08,2.49-10.201,4.8-15.621,6.3c-1.529,0.43-3.08,0.79-4.67,1.07c-2.74,1.73-4.07-0.61-5.689-2
	c-13.15-11.31-31.891-13.48-46.85-5.42c-15.08,8.13-23.92,24.7-21.58,41.47c0.601,4.3-0.66,4.59-4.24,4.2
	c-30.979-3.33-56.84-16.54-77.59-39.77c-2.83-3.16-3.09-3.1-4.85,0.9c-7.23,16.46-3.28,35.26,9.93,47.49
	c1.07,0.99,2.65,1.57,3.141,3.53c-4.57-0.23-8.721-1.4-12.761-3.03c-4.33-1.75-4.66-1.57-3.96,3.26
	c2.4,16.76,11.54,28.23,27.271,34.5c1.02,0.41,2.609,0.07,3.069,1.931c-3.659,0.689-7.21,1.189-10.859,0.85
	c-1.46-0.13-3.36-1.2-4.311,0.24c-0.89,1.34,0.471,2.92,1.13,4.28c6,12.279,15.931,19.66,29,23.069c1.881,0.21,3.75,0.42,6.511,0.74
	c0.26,0.03,0.52,0.061,0.79,0.09c-1.08,0.78-2.12,1.54-3.141,2.271c-3.64,2.59-6.979,4.79-10.899,6.1l0.02-0.149
	c-0.26,0.869-1.05,0.939-1.729,1.18c-13.5,7-28.12,8.43-43.62,8.02l0.359,0.36c2.65,2.47,9.881,5.8,11.58,6.6
	c5.261,2.48,10.61,4.511,16.04,6.131c12.84,3.829,26.15,5.359,39.92,5.1c8.891-0.17,17.771-1.16,25.94-3.61
	c27.68-8.29,50.389-24.01,66.2-48.77c13.09-20.521,19.99-42.85,19.76-67.25c-0.02-2.67,0.76-4.33,2.891-5.97
	c6.49-4.97,12.051-10.87,17.24-18.69C234.21,76.96,227.71,79.37,220.47,79.79z"/>
<path fill="#006699" d="M236.15,59.7c-3.539,7.96-8.529,14.81-15.68,20.09c7.24-0.42,13.74-2.83,21.23-5.26
	c-5.189,7.82-10.75,13.72-17.24,18.69c-2.131,1.64-2.91,3.3-2.891,5.97c0.23,24.4-6.67,46.729-19.76,67.25
	c-15.811,24.76-38.52,40.479-66.2,48.77c-8.17,2.45-17.05,3.44-25.94,3.61c-13.77,0.26-27.08-1.271-39.92-5.1
	c-5.43-1.62-10.779-3.65-16.04-6.131c-1.699-0.8-8.93-4.13-11.58-6.6l20.17,20.18l62.301,62.301h158.87V107.02L236.15,59.7z"/>
</svg>
